<svg xmlns="http://www.w3.org/2000/svg" width="500" zoomAndPan="magnify"
     viewBox="0 0 375 374.999991" height="500" preserveAspectRatio="xMidYMid meet" version="1.0">
    <defs>
        <clipPath id="22a175777e">
            <path
                d="M 71.046875 10.386719 L 304.296875 10.386719 L 304.296875 364 L 71.046875 364 Z M 71.046875 10.386719 "
                clip-rule="nonzero"/>
        </clipPath>
    </defs>
    <g clip-path="url(#22a175777e)">
        <path fill="#040606"
              d="M 187.671875 341.273438 L 284.5 160.433594 C 286.34375 155.152344 287.707031 149.714844 288.667969 144.195312 C 289.628906 138.597656 290.109375 132.839844 290.109375 126.917969 C 290.109375 98.683594 278.648438 73.089844 260.132812 54.613281 C 241.535156 36.136719 215.96875 24.699219 187.671875 24.699219 C 159.378906 24.699219 133.808594 36.136719 115.214844 54.613281 C 96.699219 73.089844 85.234375 98.683594 85.234375 126.917969 C 85.234375 132.839844 85.714844 138.597656 86.679688 144.195312 C 87.640625 149.714844 89.003906 155.152344 90.847656 160.433594 Z M 187.671875 63.332031 C 205.628906 63.332031 221.820312 70.609375 233.519531 82.367188 C 245.304688 94.046875 252.597656 110.203125 252.597656 128.117188 C 252.597656 131.796875 252.277344 135.398438 251.636719 138.996094 C 250.996094 142.597656 250.113281 146.113281 248.910156 149.554688 C 244.421875 162.351562 236.007812 173.308594 225.105469 180.988281 C 214.523438 188.425781 201.621094 192.824219 187.671875 192.824219 C 173.726562 192.824219 160.820312 188.425781 150.242188 180.988281 C 139.339844 173.308594 131.003906 162.351562 126.515625 149.554688 L 126.433594 149.632812 C 125.234375 146.195312 124.351562 142.675781 123.710938 138.996094 C 123.070312 135.398438 122.746094 131.796875 122.746094 128.117188 C 122.746094 110.203125 130.042969 94.046875 141.824219 82.367188 C 153.527344 70.609375 169.71875 63.332031 187.671875 63.332031 Z M 223.582031 92.285156 C 214.363281 83.167969 201.699219 77.488281 187.671875 77.488281 C 173.644531 77.488281 160.980469 83.167969 151.765625 92.285156 C 142.625 101.484375 136.933594 114.121094 136.933594 128.117188 C 136.933594 131.078125 137.175781 133.957031 137.65625 136.675781 C 138.136719 139.476562 138.859375 142.277344 139.742188 144.914062 C 143.265625 154.914062 149.839844 163.472656 158.335938 169.46875 C 166.59375 175.308594 176.691406 178.75 187.671875 178.75 C 198.652344 178.75 208.753906 175.308594 217.007812 169.46875 C 225.507812 163.472656 232.078125 154.914062 235.605469 144.914062 C 236.488281 142.277344 237.207031 139.554688 237.691406 136.675781 C 238.171875 133.957031 238.410156 131.078125 238.410156 128.117188 C 238.410156 114.121094 232.71875 101.484375 223.582031 92.285156 Z M 297.246094 166.429688 L 193.925781 359.429688 C 193.285156 360.710938 192.320312 361.75 190.960938 362.390625 C 187.59375 364.230469 183.265625 362.949219 181.421875 359.511719 L 78.34375 166.910156 C 78.101562 166.429688 77.859375 166.03125 77.699219 165.472656 C 75.535156 159.390625 73.851562 152.992188 72.730469 146.515625 C 71.6875 140.035156 71.046875 133.558594 71.046875 126.917969 C 71.046875 94.765625 84.113281 65.730469 105.273438 44.617188 C 126.355469 23.582031 155.449219 10.542969 187.671875 10.542969 C 219.894531 10.542969 248.992188 23.582031 270.070312 44.617188 C 291.234375 65.730469 304.296875 94.765625 304.296875 126.917969 C 304.296875 133.558594 303.65625 140.035156 302.613281 146.515625 C 301.492188 152.992188 299.808594 159.390625 297.644531 165.472656 C 297.566406 165.792969 297.40625 166.109375 297.246094 166.429688 Z M 297.246094 166.429688 "
              fill-opacity="1" fill-rule="nonzero"/>
    </g>
</svg>
