<svg xmlns="http://www.w3.org/2000/svg" width="500" zoomAndPan="magnify"
     viewBox="0 0 375 374.999991" height="500" preserveAspectRatio="xMidYMid meet" version="1.0">
    <defs>
        <clipPath id="72ca26ae41">
            <path d="M 106 30.886719 L 130 30.886719 L 130 76 L 106 76 Z M 106 30.886719 " clip-rule="nonzero"/>
        </clipPath>
        <clipPath id="86f2c29a13">
            <path d="M 30.886719 106 L 76 106 L 76 130 L 30.886719 130 Z M 30.886719 106 " clip-rule="nonzero"/>
        </clipPath>
        <clipPath id="b41288cfdc">
            <path d="M 152 30.886719 L 176 30.886719 L 176 76 L 152 76 Z M 152 30.886719 " clip-rule="nonzero"/>
        </clipPath>
        <clipPath id="f5800b4e71">
            <path d="M 30.886719 152 L 76 152 L 76 176 L 30.886719 176 Z M 30.886719 152 " clip-rule="nonzero"/>
        </clipPath>
        <clipPath id="16dbffe8d2">
            <path d="M 198 30.886719 L 222 30.886719 L 222 76 L 198 76 Z M 198 30.886719 " clip-rule="nonzero"/>
        </clipPath>
        <clipPath id="20294c69ba">
            <path d="M 30.886719 198 L 76 198 L 76 222 L 30.886719 222 Z M 30.886719 198 " clip-rule="nonzero"/>
        </clipPath>
        <clipPath id="6f84a7b31b">
            <path d="M 244 30.886719 L 268 30.886719 L 268 76 L 244 76 Z M 244 30.886719 " clip-rule="nonzero"/>
        </clipPath>
        <clipPath id="22ea25f3cc">
            <path d="M 30.886719 244 L 76 244 L 76 268 L 30.886719 268 Z M 30.886719 244 " clip-rule="nonzero"/>
        </clipPath>
    </defs>
    <path fill="#000000"
          d="M 53.058594 95.113281 C 53.058594 71.890625 71.890625 53.058594 95.113281 53.058594 L 278.628906 53.058594 C 301.855469 53.058594 320.683594 71.890625 320.683594 95.113281 L 320.683594 278.628906 C 320.683594 301.855469 301.855469 320.683594 278.628906 320.683594 L 95.113281 320.683594 C 71.890625 320.683594 53.058594 301.855469 53.058594 278.628906 Z M 95.113281 76 C 84.558594 76 76 84.558594 76 95.113281 L 76 278.628906 C 76 289.183594 84.558594 297.742188 95.113281 297.742188 L 278.628906 297.742188 C 289.183594 297.742188 297.742188 289.183594 297.742188 278.628906 L 297.742188 95.113281 C 297.742188 84.558594 289.183594 76 278.628906 76 Z M 95.113281 76 "
          fill-opacity="1" fill-rule="evenodd"/>
    <path fill="#000000"
          d="M 125.699219 114.230469 C 119.367188 114.230469 114.230469 119.367188 114.230469 125.699219 L 114.230469 248.042969 C 114.230469 254.375 119.367188 259.511719 125.699219 259.511719 L 217.457031 259.511719 C 220.941406 259.511719 224.234375 257.925781 226.414062 255.207031 L 257 216.976562 C 258.625 214.941406 259.511719 212.414062 259.511719 209.808594 L 259.511719 125.699219 C 259.511719 119.367188 254.375 114.230469 248.042969 114.230469 Z M 125.699219 114.230469 "
          fill-opacity="1" fill-rule="evenodd"/>
    <g clip-path="url(#72ca26ae41)">
        <path fill="#000000"
              d="M 118.054688 30.121094 C 124.386719 30.121094 129.523438 35.257812 129.523438 41.589844 L 129.523438 64.53125 C 129.523438 70.863281 124.386719 76 118.054688 76 C 111.71875 76 106.585938 70.863281 106.585938 64.53125 L 106.585938 41.589844 C 106.585938 35.257812 111.71875 30.121094 118.054688 30.121094 Z M 118.054688 30.121094 "
              fill-opacity="1" fill-rule="evenodd"/>
    </g>
    <path fill="#000000"
          d="M 118.054688 297.742188 C 124.386719 297.742188 129.523438 302.878906 129.523438 309.210938 L 129.523438 332.152344 C 129.523438 338.484375 124.386719 343.621094 118.054688 343.621094 C 111.71875 343.621094 106.585938 338.484375 106.585938 332.152344 L 106.585938 309.210938 C 106.585938 302.878906 111.71875 297.742188 118.054688 297.742188 Z M 118.054688 297.742188 "
          fill-opacity="1" fill-rule="evenodd"/>
    <g clip-path="url(#86f2c29a13)">
        <path fill="#000000"
              d="M 30.121094 118.054688 C 30.121094 124.386719 35.257812 129.523438 41.589844 129.523438 L 64.53125 129.523438 C 70.863281 129.523438 76 124.386719 76 118.054688 C 76 111.71875 70.863281 106.585938 64.53125 106.585938 L 41.589844 106.585938 C 35.257812 106.585938 30.121094 111.71875 30.121094 118.054688 Z M 30.121094 118.054688 "
              fill-opacity="1" fill-rule="evenodd"/>
    </g>
    <path fill="#000000"
          d="M 297.742188 118.054688 C 297.742188 124.386719 302.878906 129.523438 309.210938 129.523438 L 332.152344 129.523438 C 338.484375 129.523438 343.621094 124.386719 343.621094 118.054688 C 343.621094 111.71875 338.484375 106.585938 332.152344 106.585938 L 309.210938 106.585938 C 302.878906 106.585938 297.742188 111.71875 297.742188 118.054688 Z M 297.742188 118.054688 "
          fill-opacity="1" fill-rule="evenodd"/>
    <g clip-path="url(#b41288cfdc)">
        <path fill="#000000"
              d="M 163.933594 30.121094 C 170.265625 30.121094 175.402344 35.257812 175.402344 41.589844 L 175.402344 64.53125 C 175.402344 70.863281 170.265625 76 163.933594 76 C 157.597656 76 152.460938 70.863281 152.460938 64.53125 L 152.460938 41.589844 C 152.460938 35.257812 157.597656 30.121094 163.933594 30.121094 Z M 163.933594 30.121094 "
              fill-opacity="1" fill-rule="evenodd"/>
    </g>
    <path fill="#000000"
          d="M 163.933594 297.742188 C 170.265625 297.742188 175.402344 302.878906 175.402344 309.210938 L 175.402344 332.152344 C 175.402344 338.484375 170.265625 343.621094 163.933594 343.621094 C 157.597656 343.621094 152.460938 338.484375 152.460938 332.152344 L 152.460938 309.210938 C 152.460938 302.878906 157.597656 297.742188 163.933594 297.742188 Z M 163.933594 297.742188 "
          fill-opacity="1" fill-rule="evenodd"/>
    <g clip-path="url(#f5800b4e71)">
        <path fill="#000000"
              d="M 30.121094 163.933594 C 30.121094 170.265625 35.257812 175.402344 41.589844 175.402344 L 64.53125 175.402344 C 70.863281 175.402344 76 170.265625 76 163.933594 C 76 157.597656 70.863281 152.460938 64.53125 152.460938 L 41.589844 152.460938 C 35.257812 152.460938 30.121094 157.597656 30.121094 163.933594 Z M 30.121094 163.933594 "
              fill-opacity="1" fill-rule="evenodd"/>
    </g>
    <path fill="#000000"
          d="M 297.742188 163.933594 C 297.742188 170.265625 302.878906 175.402344 309.210938 175.402344 L 332.152344 175.402344 C 338.484375 175.402344 343.621094 170.265625 343.621094 163.933594 C 343.621094 157.597656 338.484375 152.460938 332.152344 152.460938 L 309.210938 152.460938 C 302.878906 152.460938 297.742188 157.597656 297.742188 163.933594 Z M 297.742188 163.933594 "
          fill-opacity="1" fill-rule="evenodd"/>
    <g clip-path="url(#16dbffe8d2)">
        <path fill="#000000"
              d="M 209.808594 30.121094 C 216.144531 30.121094 221.28125 35.257812 221.28125 41.589844 L 221.28125 64.53125 C 221.28125 70.863281 216.144531 76 209.808594 76 C 203.476562 76 198.339844 70.863281 198.339844 64.53125 L 198.339844 41.589844 C 198.339844 35.257812 203.476562 30.121094 209.808594 30.121094 Z M 209.808594 30.121094 "
              fill-opacity="1" fill-rule="evenodd"/>
    </g>
    <path fill="#000000"
          d="M 209.808594 297.742188 C 216.144531 297.742188 221.28125 302.878906 221.28125 309.210938 L 221.28125 332.152344 C 221.28125 338.484375 216.144531 343.621094 209.808594 343.621094 C 203.476562 343.621094 198.339844 338.484375 198.339844 332.152344 L 198.339844 309.210938 C 198.339844 302.878906 203.476562 297.742188 209.808594 297.742188 Z M 209.808594 297.742188 "
          fill-opacity="1" fill-rule="evenodd"/>
    <g clip-path="url(#20294c69ba)">
        <path fill="#000000"
              d="M 30.121094 209.808594 C 30.121094 216.144531 35.257812 221.28125 41.589844 221.28125 L 64.53125 221.28125 C 70.863281 221.28125 76 216.144531 76 209.808594 C 76 203.476562 70.863281 198.339844 64.53125 198.339844 L 41.589844 198.339844 C 35.257812 198.339844 30.121094 203.476562 30.121094 209.808594 Z M 30.121094 209.808594 "
              fill-opacity="1" fill-rule="evenodd"/>
    </g>
    <path fill="#000000"
          d="M 297.742188 209.808594 C 297.742188 216.144531 302.878906 221.28125 309.210938 221.28125 L 332.152344 221.28125 C 338.484375 221.28125 343.621094 216.144531 343.621094 209.808594 C 343.621094 203.476562 338.484375 198.339844 332.152344 198.339844 L 309.210938 198.339844 C 302.878906 198.339844 297.742188 203.476562 297.742188 209.808594 Z M 297.742188 209.808594 "
          fill-opacity="1" fill-rule="evenodd"/>
    <g clip-path="url(#6f84a7b31b)">
        <path fill="#000000"
              d="M 255.6875 30.121094 C 262.023438 30.121094 267.15625 35.257812 267.15625 41.589844 L 267.15625 64.53125 C 267.15625 70.863281 262.023438 76 255.6875 76 C 249.355469 76 244.21875 70.863281 244.21875 64.53125 L 244.21875 41.589844 C 244.21875 35.257812 249.355469 30.121094 255.6875 30.121094 Z M 255.6875 30.121094 "
              fill-opacity="1" fill-rule="evenodd"/>
    </g>
    <path fill="#000000"
          d="M 255.6875 297.742188 C 262.023438 297.742188 267.15625 302.878906 267.15625 309.210938 L 267.15625 332.152344 C 267.15625 338.484375 262.023438 343.621094 255.6875 343.621094 C 249.355469 343.621094 244.21875 338.484375 244.21875 332.152344 L 244.21875 309.210938 C 244.21875 302.878906 249.355469 297.742188 255.6875 297.742188 Z M 255.6875 297.742188 "
          fill-opacity="1" fill-rule="evenodd"/>
    <g clip-path="url(#22ea25f3cc)">
        <path fill="#000000"
              d="M 30.121094 255.6875 C 30.121094 262.023438 35.257812 267.15625 41.589844 267.15625 L 64.53125 267.15625 C 70.863281 267.15625 76 262.023438 76 255.6875 C 76 249.355469 70.863281 244.21875 64.53125 244.21875 L 41.589844 244.21875 C 35.257812 244.21875 30.121094 249.355469 30.121094 255.6875 Z M 30.121094 255.6875 "
              fill-opacity="1" fill-rule="evenodd"/>
    </g>
    <path fill="#000000"
          d="M 297.742188 255.6875 C 297.742188 262.023438 302.878906 267.15625 309.210938 267.15625 L 332.152344 267.15625 C 338.484375 267.15625 343.621094 262.023438 343.621094 255.6875 C 343.621094 249.355469 338.484375 244.21875 332.152344 244.21875 L 309.210938 244.21875 C 302.878906 244.21875 297.742188 249.355469 297.742188 255.6875 Z M 297.742188 255.6875 "
          fill-opacity="1" fill-rule="evenodd"/>
</svg>
