<svg xmlns="http://www.w3.org/2000/svg" width="500" zoomAndPan="magnify"
     viewBox="0 0 375 374.999991" height="500" preserveAspectRatio="xMidYMid meet" version="1.0">
    <defs>
        <clipPath id="d29a99e88a">
            <path
                d="M 18.164062 9.953125 L 357.164062 9.953125 L 357.164062 279 L 18.164062 279 Z M 18.164062 9.953125 "
                clip-rule="nonzero"/>
        </clipPath>
        <clipPath id="9ef8c3eeb5">
            <path d="M 76 231 L 299 231 L 299 364.703125 L 76 364.703125 Z M 76 231 " clip-rule="nonzero"/>
        </clipPath>
    </defs>
    <path fill="#000000"
          d="M 140.179688 103.074219 C 141.011719 103.074219 144.34375 101.410156 145.175781 101.132812 C 147.953125 99.75 148.789062 96.421875 147.398438 93.652344 C 146.011719 90.878906 142.679688 90.046875 139.902344 91.433594 C 139.066406 91.988281 138.234375 92.265625 137.402344 92.820312 C 134.625 94.484375 133.792969 97.808594 135.457031 100.304688 C 136.570312 101.964844 138.234375 103.074219 140.179688 103.074219 Z M 140.179688 103.074219 "
          fill-opacity="1" fill-rule="nonzero"/>
    <path fill="#000000"
          d="M 119.351562 122.199219 C 119.90625 121.644531 120.460938 120.8125 121.019531 120.257812 C 122.960938 118.039062 122.960938 114.4375 120.460938 112.496094 C 118.242188 110.558594 114.632812 110.558594 112.6875 113.050781 C 112.132812 113.882812 111.300781 114.4375 110.742188 115.269531 C 108.800781 117.484375 109.078125 121.089844 111.578125 123.027344 C 112.6875 123.859375 113.796875 124.414062 115.1875 124.414062 C 116.851562 124.136719 118.242188 123.582031 119.351562 122.199219 Z M 119.351562 122.199219 "
          fill-opacity="1" fill-rule="nonzero"/>
    <path fill="#000000"
          d="M 101.855469 139.105469 C 99.082031 137.996094 95.75 139.382812 94.636719 142.152344 C 94.359375 142.984375 93.804688 144.09375 93.527344 144.925781 C 92.414062 147.695312 94.082031 151.019531 96.859375 152.128906 C 97.414062 152.40625 98.246094 152.40625 98.804688 152.40625 C 101.023438 152.40625 103.246094 151.019531 104.078125 148.804688 C 104.355469 147.972656 104.632812 147.140625 104.910156 146.308594 C 106.023438 143.539062 104.632812 140.488281 101.855469 139.105469 Z M 101.855469 139.105469 "
          fill-opacity="1" fill-rule="nonzero"/>
    <path fill="#000000"
          d="M 171.003906 91.710938 C 171.28125 91.710938 173.78125 91.433594 174.613281 91.15625 C 177.667969 90.601562 179.609375 87.832031 179.332031 84.78125 C 178.777344 81.734375 176 79.792969 172.945312 80.070312 C 172.113281 80.347656 171.003906 80.347656 170.167969 80.625 C 167.113281 81.179688 165.171875 83.953125 165.726562 87 C 166.003906 89.769531 168.226562 91.710938 171.003906 91.710938 Z M 171.003906 91.710938 "
          fill-opacity="1" fill-rule="nonzero"/>
    <path fill="#000000"
          d="M 96.304688 203.679688 C 93.527344 204.511719 91.859375 207.835938 92.695312 210.609375 C 92.972656 211.441406 93.25 212.546875 93.527344 213.378906 C 94.359375 215.597656 96.582031 216.984375 98.804688 216.984375 C 99.359375 216.984375 100.191406 216.984375 100.746094 216.707031 C 103.523438 215.597656 105.191406 212.546875 104.078125 209.5 C 103.800781 208.667969 103.523438 207.835938 103.246094 207.003906 C 102.414062 204.234375 99.359375 202.570312 96.304688 203.679688 Z M 96.304688 203.679688 "
          fill-opacity="1" fill-rule="nonzero"/>
    <path fill="#000000"
          d="M 87.695312 176.242188 C 87.695312 177.074219 87.695312 177.90625 87.695312 179.011719 L 87.695312 179.289062 C 87.695312 182.339844 90.195312 184.832031 93.25 184.832031 C 96.304688 184.832031 98.804688 182.339844 98.804688 179.289062 C 98.804688 178.457031 98.804688 177.628906 98.804688 176.796875 C 98.804688 173.746094 96.582031 171.253906 93.527344 170.976562 C 90.195312 170.699219 87.695312 173.191406 87.695312 176.242188 Z M 87.695312 176.242188 "
          fill-opacity="1" fill-rule="nonzero"/>
    <path fill="#000000"
          d="M 206.546875 92.265625 C 209.046875 92.265625 211.546875 90.324219 212.101562 87.832031 C 212.65625 84.78125 210.710938 82.011719 207.65625 81.179688 C 206.824219 80.902344 205.714844 80.902344 204.882812 80.625 C 201.828125 80.070312 199.050781 82.011719 198.496094 85.058594 C 197.9375 88.109375 199.882812 90.878906 202.9375 91.433594 C 203.769531 91.710938 205.992188 92.265625 206.546875 92.265625 Z M 206.546875 92.265625 "
          fill-opacity="1" fill-rule="nonzero"/>
    <path fill="#000000"
          d="M 261.53125 125.800781 C 262.640625 125.800781 264.03125 125.523438 264.863281 124.691406 C 267.363281 122.753906 267.640625 119.425781 265.695312 116.933594 C 265.140625 116.101562 264.585938 115.546875 263.753906 114.714844 C 261.808594 112.496094 258.199219 112.21875 255.976562 114.160156 C 253.753906 116.101562 253.199219 119.703125 255.421875 121.921875 C 255.976562 122.476562 256.53125 123.304688 257.085938 123.859375 C 258.199219 125.246094 259.863281 125.800781 261.53125 125.800781 Z M 261.53125 125.800781 "
          fill-opacity="1" fill-rule="nonzero"/>
    <path fill="#000000"
          d="M 281.523438 144.648438 C 280.414062 141.875 277.359375 140.210938 274.304688 141.320312 C 271.527344 142.429688 269.859375 145.476562 270.972656 148.527344 C 271.25 149.359375 271.527344 150.191406 271.804688 151.019531 C 272.636719 153.238281 274.859375 154.902344 277.082031 154.902344 C 277.636719 154.902344 278.191406 154.902344 278.746094 154.625 C 281.523438 153.792969 283.191406 150.46875 282.355469 147.695312 C 282.078125 146.308594 281.800781 145.476562 281.523438 144.648438 Z M 281.523438 144.648438 "
          fill-opacity="1" fill-rule="nonzero"/>
    <path fill="#000000"
          d="M 273.472656 218.921875 C 274.027344 219.199219 274.859375 219.199219 275.414062 219.199219 C 277.636719 219.199219 279.582031 217.8125 280.691406 215.597656 C 280.96875 214.765625 281.523438 213.65625 281.800781 212.824219 C 282.914062 210.054688 281.246094 206.726562 278.46875 205.621094 C 275.691406 204.511719 272.359375 206.171875 271.25 208.945312 C 270.972656 209.777344 270.695312 210.609375 270.417969 211.441406 C 269.027344 214.488281 270.417969 217.8125 273.472656 218.921875 Z M 273.472656 218.921875 "
          fill-opacity="1" fill-rule="nonzero"/>
    <path fill="#000000"
          d="M 276.527344 178.734375 C 276.527344 178.734375 276.527344 180.953125 276.527344 181.785156 C 276.527344 184.832031 278.746094 187.328125 281.800781 187.605469 C 281.800781 187.605469 281.800781 187.605469 282.078125 187.605469 C 285.132812 187.605469 287.632812 185.109375 287.632812 182.339844 C 287.632812 181.507812 287.632812 179.011719 287.632812 179.011719 C 287.632812 175.964844 285.132812 173.46875 282.078125 173.46875 C 279.023438 173.46875 276.527344 175.6875 276.527344 178.734375 Z M 276.527344 178.734375 "
          fill-opacity="1" fill-rule="nonzero"/>
    <path fill="#000000"
          d="M 231.816406 101.964844 C 232.652344 102.519531 235.984375 104.183594 236.816406 104.183594 C 238.757812 104.183594 240.425781 103.351562 241.535156 101.410156 C 243.203125 98.917969 242.371094 95.3125 239.59375 93.652344 C 238.757812 93.097656 237.925781 92.542969 237.09375 92.265625 C 234.316406 90.878906 230.984375 91.710938 229.597656 94.207031 C 228.207031 97.253906 229.316406 100.582031 231.816406 101.964844 Z M 231.816406 101.964844 "
          fill-opacity="1" fill-rule="nonzero"/>
    <g clip-path="url(#d29a99e88a)">
        <path fill="#000000"
              d="M 340.949219 154.902344 L 325.953125 154.902344 C 324.566406 146.585938 322.34375 138.550781 319.566406 130.789062 L 332.621094 123.304688 C 336.230469 121.089844 339.007812 117.761719 340.117188 113.605469 C 341.226562 109.449219 340.671875 105.015625 338.453125 101.410156 L 330.398438 87.832031 C 325.953125 80.070312 315.957031 77.578125 308.460938 82.011719 L 295.410156 89.496094 C 290.132812 83.121094 284.023438 77.023438 277.636719 71.757812 L 285.132812 58.730469 C 289.578125 50.96875 286.800781 41.269531 279.300781 36.835938 L 265.417969 28.523438 C 261.808594 26.304688 257.363281 25.75 253.199219 26.859375 C 249.035156 27.96875 245.425781 30.738281 243.480469 34.339844 L 235.984375 47.367188 C 228.207031 44.597656 219.875 42.378906 211.824219 40.992188 L 211.824219 26.027344 C 211.824219 17.160156 204.605469 9.953125 195.71875 9.953125 L 179.890625 9.953125 C 171.003906 9.953125 163.78125 17.160156 163.78125 26.027344 L 163.78125 40.992188 C 155.453125 42.378906 147.398438 44.597656 139.625 47.367188 L 132.125 34.34375 C 129.90625 30.738281 126.570312 27.96875 122.40625 26.859375 C 117.964844 26.027344 113.519531 26.582031 109.910156 28.523438 L 96.027344 36.558594 C 88.25 40.992188 85.75 50.96875 90.195312 58.453125 L 97.691406 71.480469 C 91.304688 76.746094 85.195312 82.84375 79.917969 89.21875 L 66.867188 81.734375 C 59.09375 77.300781 49.375 80.070312 44.929688 87.554688 L 36.878906 101.410156 C 34.65625 105.015625 34.101562 109.449219 35.210938 113.605469 C 36.320312 117.761719 39.097656 121.367188 42.707031 123.304688 L 55.761719 130.789062 C 52.984375 138.550781 50.761719 146.863281 49.375 154.902344 L 34.378906 154.902344 C 25.492188 154.902344 18.273438 162.105469 18.273438 170.976562 L 18.273438 186.773438 C 18.273438 195.640625 25.492188 202.847656 34.378906 202.847656 L 49.375 202.847656 C 50.761719 211.164062 52.984375 219.199219 55.761719 226.960938 L 42.707031 234.441406 C 39.097656 236.660156 36.320312 239.984375 35.210938 244.144531 C 34.101562 248.300781 34.933594 253.011719 36.878906 256.613281 L 44.929688 270.195312 C 49.375 277.957031 59.371094 280.449219 66.867188 276.015625 L 67.144531 276.015625 C 68.257812 270.472656 70.199219 264.929688 72.699219 259.941406 L 61.59375 266.316406 C 59.09375 267.699219 56.039062 266.871094 54.648438 264.375 L 46.597656 251.070312 C 46.042969 249.964844 45.761719 248.578125 46.042969 247.191406 C 46.320312 245.804688 47.152344 244.699219 48.261719 244.144531 L 65.480469 234.441406 C 67.980469 233.058594 68.8125 230.007812 67.980469 227.515625 C 64.089844 217.535156 61.3125 207.28125 59.648438 196.75 C 59.371094 193.980469 56.871094 192.039062 54.09375 192.039062 L 34.378906 192.039062 C 31.601562 192.039062 29.378906 189.820312 29.378906 187.050781 L 29.378906 171.253906 C 29.378906 168.480469 31.601562 166.265625 34.378906 166.265625 L 54.09375 166.265625 C 56.871094 166.265625 59.09375 164.324219 59.648438 161.554688 C 61.035156 151.019531 63.8125 140.488281 67.980469 130.789062 C 69.089844 128.296875 67.980469 125.246094 65.480469 123.859375 L 48.261719 113.882812 C 47.152344 113.328125 46.320312 112.21875 46.042969 110.835938 C 45.761719 109.449219 45.761719 108.0625 46.597656 106.953125 L 54.648438 93.375 C 56.039062 90.878906 59.09375 90.046875 61.59375 91.433594 L 78.808594 101.410156 C 81.308594 102.796875 84.363281 102.242188 86.027344 100.027344 C 92.695312 91.710938 100.191406 83.953125 108.523438 77.578125 C 110.742188 75.914062 111.300781 72.867188 109.910156 70.371094 L 99.914062 53.1875 C 98.523438 50.695312 99.359375 47.644531 101.855469 46.257812 L 115.464844 38.222656 C 116.574219 37.667969 117.964844 37.390625 119.351562 37.667969 C 120.742188 37.945312 121.851562 38.777344 122.40625 39.886719 L 132.125 57.066406 C 133.515625 59.5625 136.570312 60.394531 139.066406 59.5625 C 149.066406 55.683594 159.339844 52.910156 169.890625 51.246094 C 172.667969 50.96875 174.613281 48.476562 174.613281 45.703125 L 174.613281 26.027344 C 174.613281 23.253906 176.835938 21.039062 179.609375 21.039062 L 195.441406 21.039062 C 198.214844 21.039062 200.4375 23.253906 200.4375 26.027344 L 200.4375 45.703125 C 200.4375 48.476562 202.382812 50.695312 205.160156 51.246094 C 215.710938 52.632812 226.261719 55.40625 235.984375 59.5625 C 238.480469 60.671875 241.535156 59.5625 242.925781 57.066406 L 252.921875 39.882812 C 253.476562 38.777344 254.589844 37.945312 255.976562 37.667969 C 257.363281 37.390625 258.753906 37.390625 259.863281 38.222656 L 273.472656 46.257812 C 275.96875 47.644531 276.804688 50.695312 275.414062 53.1875 L 265.417969 70.371094 C 264.03125 72.867188 264.585938 75.914062 266.804688 77.578125 C 275.136719 84.226562 282.914062 91.710938 289.300781 100.027344 C 290.964844 102.242188 294.019531 102.796875 296.519531 101.410156 L 313.738281 91.433594 C 316.234375 90.046875 319.289062 90.878906 320.679688 93.375 L 328.730469 106.953125 C 329.289062 108.0625 329.566406 109.449219 329.289062 110.835938 C 329.007812 112.21875 328.175781 113.328125 327.066406 113.882812 L 309.847656 123.582031 C 307.351562 124.96875 306.515625 128.019531 307.351562 130.511719 C 311.238281 140.488281 314.015625 150.742188 315.679688 161.277344 C 315.957031 164.046875 318.457031 165.988281 321.234375 165.988281 L 340.949219 165.988281 C 343.726562 165.988281 345.949219 168.203125 345.949219 170.976562 L 345.949219 186.773438 C 345.949219 189.542969 343.726562 191.761719 340.949219 191.761719 L 321.234375 191.761719 C 318.457031 191.761719 316.234375 193.703125 315.679688 196.472656 C 314.292969 207.003906 311.515625 217.535156 307.351562 227.238281 C 306.238281 229.730469 307.351562 232.78125 309.847656 234.164062 L 327.066406 244.144531 C 328.175781 244.699219 329.007812 245.804688 329.289062 247.191406 C 329.566406 248.578125 329.566406 249.964844 328.730469 251.070312 L 320.679688 264.652344 C 319.289062 267.144531 316.234375 267.976562 313.738281 266.59375 L 302.628906 260.21875 C 305.128906 265.207031 306.792969 270.472656 308.183594 276.292969 L 308.460938 276.292969 C 316.234375 280.726562 325.953125 277.957031 330.398438 270.472656 L 338.453125 256.890625 C 340.671875 253.289062 341.226562 248.855469 340.117188 244.699219 C 339.007812 240.539062 336.230469 236.9375 332.621094 234.996094 L 319.566406 227.515625 C 322.34375 219.753906 324.566406 211.441406 325.957031 203.402344 L 340.949219 203.402344 C 349.835938 203.402344 357.054688 196.195312 357.054688 187.328125 L 357.054688 171.53125 C 357.054688 162.105469 349.835938 154.902344 340.949219 154.902344 Z M 340.949219 154.902344 "
              fill-opacity="1" fill-rule="nonzero"/>
    </g>
    <path fill="#000000"
          d="M 173.222656 249.6875 L 160.449219 311.214844 C 159.894531 314.539062 160.726562 317.863281 163.226562 320.636719 L 179.609375 338.929688 C 181.832031 341.421875 184.609375 342.53125 187.941406 342.53125 C 191.273438 342.53125 194.050781 341.144531 196.273438 338.929688 L 212.65625 320.636719 C 214.878906 318.140625 215.988281 314.816406 215.15625 311.214844 L 202.382812 249.6875 C 198.773438 250.515625 195.160156 250.792969 191.273438 251.070312 L 204.046875 313.152344 L 187.664062 331.445312 L 171.28125 313.429688 L 184.332031 251.070312 C 180.445312 250.792969 176.835938 250.242188 173.222656 249.6875 Z M 173.222656 249.6875 "
          fill-opacity="1" fill-rule="nonzero"/>
    <g clip-path="url(#9ef8c3eeb5)">
        <path fill="#000000"
              d="M 236.816406 231.671875 C 232.09375 236.105469 226.820312 239.707031 221.265625 242.757812 L 234.316406 242.757812 C 265.695312 242.757812 287.632812 262.988281 287.632812 292.367188 L 287.632812 348.628906 C 287.632812 351.398438 285.132812 353.894531 282.078125 353.894531 L 93.25 353.894531 C 90.195312 353.894531 87.695312 351.675781 87.695312 348.628906 L 87.695312 292.367188 C 87.695312 262.988281 109.632812 242.757812 141.011719 242.757812 L 154.0625 242.757812 C 148.507812 239.707031 143.234375 236.105469 138.511719 231.671875 C 102.414062 232.78125 76.585938 258 76.585938 292.089844 L 76.585938 348.351562 C 76.585938 357.21875 84.085938 364.703125 93.25 364.703125 L 282.078125 364.703125 C 291.242188 364.703125 298.742188 357.496094 298.742188 348.351562 L 298.742188 292.089844 C 298.742188 258 272.914062 232.78125 236.816406 231.671875 Z M 236.816406 231.671875 "
              fill-opacity="1" fill-rule="nonzero"/>
    </g>
    <path fill="#000000"
          d="M 187.664062 239.984375 C 221.265625 239.984375 248.757812 212.546875 248.757812 179.011719 C 248.757812 145.476562 221.265625 118.039062 187.664062 118.039062 C 154.0625 118.039062 126.570312 145.476562 126.570312 179.011719 C 126.570312 212.546875 154.0625 239.984375 187.664062 239.984375 Z M 187.664062 129.125 C 215.15625 129.125 237.648438 151.574219 237.648438 179.011719 C 237.648438 206.449219 215.15625 228.898438 187.664062 228.898438 C 160.171875 228.898438 137.679688 206.449219 137.679688 179.011719 C 137.679688 151.574219 160.171875 129.125 187.664062 129.125 Z M 187.664062 129.125 "
          fill-opacity="1" fill-rule="nonzero"/>
</svg>
