<svg xmlns="http://www.w3.org/2000/svg" width="500" zoomAndPan="magnify"
     viewBox="0 0 375 374.999991" height="500" preserveAspectRatio="xMidYMid meet" version="1.0">
    <defs>
        <clipPath id="c7aed39a62">
            <path d="M 263 29 L 341.757812 29 L 341.757812 168 L 263 168 Z M 263 29 " clip-rule="nonzero"/>
        </clipPath>
        <clipPath id="723f11c57b">
            <path d="M 33.507812 29 L 112 29 L 112 168 L 33.507812 168 Z M 33.507812 29 " clip-rule="nonzero"/>
        </clipPath>
    </defs>
    <g clip-path="url(#c7aed39a62)">
        <path fill="#000000"
              d="M 284.085938 32.796875 C 283.445312 32.269531 282.757812 31.8125 282.027344 31.421875 C 281.296875 31.03125 280.53125 30.714844 279.738281 30.472656 C 278.945312 30.230469 278.136719 30.070312 277.308594 29.988281 C 276.484375 29.90625 275.65625 29.90625 274.832031 29.988281 C 274.007812 30.070312 273.195312 30.230469 272.402344 30.46875 C 271.609375 30.710938 270.847656 31.027344 270.113281 31.417969 C 269.382812 31.808594 268.695312 32.265625 268.054688 32.792969 C 267.414062 33.320312 266.828125 33.902344 266.300781 34.542969 C 265.773438 35.183594 265.316406 35.871094 264.925781 36.601562 C 264.53125 37.335938 264.214844 38.097656 263.976562 38.890625 C 263.734375 39.683594 263.574219 40.496094 263.492188 41.320312 C 263.410156 42.148438 263.410156 42.972656 263.488281 43.796875 C 263.570312 44.625 263.730469 45.433594 263.972656 46.226562 C 264.210938 47.023438 264.527344 47.785156 264.917969 48.519531 C 265.308594 49.25 265.765625 49.9375 266.292969 50.578125 C 266.816406 51.21875 267.402344 51.804688 268.042969 52.332031 C 271.808594 55.425781 275.394531 58.71875 278.796875 62.210938 C 282.199219 65.703125 285.398438 69.371094 288.394531 73.21875 C 291.390625 77.066406 294.164062 81.070312 296.714844 85.222656 C 299.269531 89.378906 301.582031 93.664062 303.65625 98.074219 C 305.734375 102.488281 307.558594 107 309.132812 111.617188 C 310.710938 116.230469 312.023438 120.917969 313.078125 125.679688 C 314.132812 130.4375 314.921875 135.242188 315.445312 140.09375 C 315.964844 144.941406 316.21875 149.804688 316.199219 154.679688 C 316.199219 155.507812 316.28125 156.332031 316.441406 157.144531 C 316.605469 157.957031 316.84375 158.746094 317.160156 159.515625 C 317.476562 160.28125 317.867188 161.007812 318.328125 161.699219 C 318.789062 162.390625 319.3125 163.027344 319.898438 163.613281 C 320.484375 164.199219 321.125 164.722656 321.8125 165.183594 C 322.503906 165.644531 323.230469 166.035156 324 166.351562 C 324.765625 166.671875 325.554688 166.910156 326.367188 167.070312 C 327.179688 167.234375 328.003906 167.3125 328.832031 167.316406 C 329.664062 167.3125 330.484375 167.234375 331.296875 167.070312 C 332.109375 166.910156 332.902344 166.671875 333.667969 166.351562 C 334.433594 166.035156 335.160156 165.644531 335.851562 165.183594 C 336.539062 164.722656 337.179688 164.199219 337.765625 163.613281 C 338.351562 163.027344 338.875 162.390625 339.335938 161.699219 C 339.796875 161.007812 340.1875 160.28125 340.503906 159.515625 C 340.820312 158.746094 341.0625 157.957031 341.222656 157.144531 C 341.386719 156.332031 341.464844 155.507812 341.464844 154.679688 C 341.484375 148.871094 341.183594 143.082031 340.558594 137.308594 C 339.9375 131.535156 338.996094 125.8125 337.738281 120.140625 C 336.480469 114.472656 334.910156 108.890625 333.035156 103.394531 C 331.15625 97.898438 328.980469 92.523438 326.507812 87.269531 C 324.035156 82.015625 321.277344 76.914062 318.238281 71.96875 C 315.199219 67.019531 311.894531 62.253906 308.328125 57.671875 C 304.761719 53.089844 300.949219 48.722656 296.898438 44.5625 C 292.84375 40.402344 288.574219 36.480469 284.085938 32.796875 Z M 284.085938 32.796875 "
              fill-opacity="1" fill-rule="nonzero"/>
    </g>
    <g clip-path="url(#723f11c57b)">
        <path fill="#000000"
              d="M 107.222656 52.332031 C 107.863281 51.804688 108.445312 51.21875 108.972656 50.578125 C 109.496094 49.9375 109.957031 49.25 110.347656 48.519531 C 110.734375 47.785156 111.050781 47.023438 111.292969 46.226562 C 111.53125 45.433594 111.691406 44.625 111.773438 43.796875 C 111.855469 42.972656 111.855469 42.148438 111.773438 41.320312 C 111.691406 40.496094 111.527344 39.683594 111.289062 38.890625 C 111.046875 38.097656 110.730469 37.335938 110.339844 36.601562 C 109.945312 35.871094 109.488281 35.183594 108.960938 34.542969 C 108.433594 33.902344 107.851562 33.320312 107.207031 32.792969 C 106.566406 32.265625 105.878906 31.808594 105.148438 31.417969 C 104.417969 31.027344 103.652344 30.710938 102.859375 30.46875 C 102.066406 30.230469 101.257812 30.070312 100.429688 29.988281 C 99.605469 29.90625 98.777344 29.90625 97.953125 29.988281 C 97.128906 30.070312 96.316406 30.230469 95.523438 30.472656 C 94.730469 30.714844 93.96875 31.03125 93.234375 31.421875 C 92.503906 31.8125 91.816406 32.269531 91.175781 32.796875 C 86.6875 36.480469 82.417969 40.402344 78.367188 44.5625 C 74.3125 48.722656 70.503906 53.089844 66.933594 57.671875 C 63.367188 62.253906 60.0625 67.019531 57.023438 71.96875 C 53.984375 76.914062 51.226562 82.015625 48.753906 87.269531 C 46.28125 92.523438 44.105469 97.898438 42.226562 103.394531 C 40.351562 108.890625 38.78125 114.472656 37.523438 120.140625 C 36.265625 125.8125 35.328125 131.535156 34.703125 137.308594 C 34.078125 143.082031 33.777344 148.871094 33.796875 154.679688 C 33.796875 155.507812 33.878906 156.332031 34.039062 157.144531 C 34.203125 157.957031 34.441406 158.746094 34.757812 159.515625 C 35.074219 160.28125 35.464844 161.007812 35.925781 161.699219 C 36.386719 162.390625 36.910156 163.027344 37.496094 163.613281 C 38.082031 164.199219 38.722656 164.722656 39.410156 165.183594 C 40.101562 165.644531 40.828125 166.035156 41.59375 166.351562 C 42.363281 166.671875 43.152344 166.910156 43.964844 167.070312 C 44.777344 167.234375 45.601562 167.3125 46.429688 167.316406 C 47.257812 167.3125 48.082031 167.234375 48.894531 167.070312 C 49.707031 166.910156 50.5 166.671875 51.265625 166.351562 C 52.03125 166.035156 52.757812 165.644531 53.449219 165.183594 C 54.136719 164.722656 54.777344 164.199219 55.363281 163.613281 C 55.949219 163.027344 56.472656 162.390625 56.933594 161.699219 C 57.394531 161.007812 57.785156 160.28125 58.101562 159.515625 C 58.417969 158.746094 58.660156 157.957031 58.820312 157.144531 C 58.984375 156.332031 59.0625 155.507812 59.0625 154.679688 C 59.046875 149.804688 59.296875 144.941406 59.820312 140.09375 C 60.339844 135.242188 61.128906 130.4375 62.183594 125.679688 C 63.238281 120.917969 64.554688 116.230469 66.128906 111.617188 C 67.703125 107 69.527344 102.488281 71.605469 98.074219 C 73.679688 93.664062 75.996094 89.378906 78.546875 85.222656 C 81.097656 81.070312 83.871094 77.066406 86.867188 73.21875 C 89.863281 69.371094 93.0625 65.703125 96.464844 62.210938 C 99.867188 58.71875 103.453125 55.425781 107.222656 52.332031 Z M 107.222656 52.332031 "
              fill-opacity="1" fill-rule="nonzero"/>
    </g>
    <path fill="#000000"
          d="M 290.933594 243.921875 L 290.933594 154.679688 C 290.945312 153.097656 290.925781 151.519531 290.867188 149.941406 C 290.8125 148.363281 290.71875 146.785156 290.589844 145.210938 C 290.464844 143.636719 290.300781 142.066406 290.101562 140.5 C 289.902344 138.933594 289.667969 137.371094 289.398438 135.8125 C 289.128906 134.257812 288.824219 132.707031 288.488281 131.164062 C 288.148438 129.621094 287.773438 128.085938 287.367188 126.5625 C 286.957031 125.035156 286.515625 123.519531 286.039062 122.011719 C 285.5625 120.507812 285.054688 119.011719 284.511719 117.527344 C 283.964844 116.046875 283.390625 114.574219 282.78125 113.117188 C 282.167969 111.660156 281.527344 110.21875 280.851562 108.789062 C 280.175781 107.363281 279.472656 105.949219 278.730469 104.554688 C 277.992188 103.15625 277.222656 101.777344 276.421875 100.417969 C 275.621094 99.054688 274.792969 97.710938 273.929688 96.386719 C 273.070312 95.0625 272.179688 93.757812 271.257812 92.472656 C 270.339844 91.191406 269.390625 89.925781 268.414062 88.6875 C 267.4375 87.445312 266.433594 86.226562 265.402344 85.03125 C 264.371094 83.832031 263.3125 82.660156 262.226562 81.511719 C 261.144531 80.363281 260.035156 79.242188 258.898438 78.140625 C 257.761719 77.042969 256.605469 75.972656 255.421875 74.925781 C 254.238281 73.878906 253.03125 72.859375 251.800781 71.867188 C 250.574219 70.875 249.320312 69.914062 248.050781 68.976562 C 246.777344 68.042969 245.484375 67.136719 244.167969 66.257812 C 242.855469 65.378906 241.523438 64.535156 240.171875 63.714844 C 238.820312 62.898438 237.449219 62.113281 236.0625 61.355469 C 234.675781 60.601562 233.273438 59.878906 231.855469 59.1875 C 230.433594 58.492188 229 57.832031 227.550781 57.207031 C 226.101562 56.578125 224.636719 55.984375 223.160156 55.421875 C 221.683594 54.859375 220.199219 54.332031 218.699219 53.835938 C 217.199219 53.34375 215.6875 52.882812 214.167969 52.457031 C 212.644531 52.027344 211.117188 51.636719 209.578125 51.277344 C 208.039062 50.921875 206.492188 50.597656 204.941406 50.3125 C 203.386719 50.023438 201.828125 49.769531 200.265625 49.550781 L 200.265625 36.042969 C 200.265625 35.214844 200.183594 34.394531 200.023438 33.578125 C 199.859375 32.765625 199.621094 31.976562 199.304688 31.210938 C 198.984375 30.441406 198.597656 29.714844 198.136719 29.023438 C 197.675781 28.335938 197.152344 27.695312 196.5625 27.109375 C 195.976562 26.523438 195.339844 26 194.648438 25.539062 C 193.960938 25.078125 193.230469 24.6875 192.464844 24.371094 C 191.699219 24.054688 190.910156 23.8125 190.097656 23.652344 C 189.28125 23.488281 188.460938 23.410156 187.632812 23.410156 C 186.800781 23.410156 185.980469 23.488281 185.167969 23.652344 C 184.351562 23.8125 183.5625 24.054688 182.796875 24.371094 C 182.03125 24.6875 181.300781 25.078125 180.613281 25.539062 C 179.921875 26 179.285156 26.523438 178.699219 27.109375 C 178.113281 27.695312 177.589844 28.335938 177.128906 29.023438 C 176.667969 29.714844 176.277344 30.441406 175.960938 31.210938 C 175.640625 31.976562 175.402344 32.765625 175.242188 33.578125 C 175.078125 34.394531 175 35.214844 175 36.042969 L 175 49.550781 C 173.433594 49.769531 171.875 50.023438 170.320312 50.3125 C 168.769531 50.597656 167.222656 50.921875 165.683594 51.277344 C 164.148438 51.636719 162.617188 52.027344 161.097656 52.457031 C 159.574219 52.882812 158.066406 53.34375 156.566406 53.835938 C 155.066406 54.332031 153.578125 54.859375 152.101562 55.421875 C 150.625 55.984375 149.160156 56.578125 147.710938 57.207031 C 146.261719 57.832031 144.828125 58.492188 143.410156 59.1875 C 141.988281 59.878906 140.585938 60.601562 139.199219 61.355469 C 137.8125 62.113281 136.441406 62.898438 135.089844 63.714844 C 133.738281 64.535156 132.40625 65.378906 131.09375 66.257812 C 129.78125 67.136719 128.488281 68.042969 127.214844 68.976562 C 125.941406 69.914062 124.691406 70.875 123.460938 71.867188 C 122.230469 72.859375 121.023438 73.878906 119.84375 74.925781 C 118.660156 75.972656 117.5 77.042969 116.363281 78.140625 C 115.230469 79.242188 114.121094 80.363281 113.035156 81.511719 C 111.949219 82.660156 110.890625 83.832031 109.859375 85.03125 C 108.828125 86.226562 107.824219 87.445312 106.847656 88.6875 C 105.871094 89.925781 104.921875 91.191406 104.003906 92.472656 C 103.082031 93.757812 102.191406 95.0625 101.332031 96.386719 C 100.46875 97.710938 99.640625 99.054688 98.839844 100.417969 C 98.039062 101.777344 97.269531 103.15625 96.53125 104.554688 C 95.792969 105.949219 95.085938 107.363281 94.410156 108.789062 C 93.734375 110.21875 93.09375 111.660156 92.484375 113.117188 C 91.875 114.574219 91.296875 116.046875 90.753906 117.527344 C 90.210938 119.011719 89.699219 120.507812 89.222656 122.011719 C 88.746094 123.519531 88.304688 125.035156 87.894531 126.5625 C 87.488281 128.085938 87.113281 129.621094 86.777344 131.164062 C 86.4375 132.707031 86.132812 134.257812 85.863281 135.8125 C 85.59375 137.371094 85.359375 138.933594 85.160156 140.5 C 84.964844 142.066406 84.800781 143.636719 84.671875 145.210938 C 84.542969 146.785156 84.449219 148.363281 84.394531 149.941406 C 84.335938 151.519531 84.316406 153.097656 84.328125 154.679688 L 84.328125 243.921875 L 66.921875 267.816406 C 66.128906 268.902344 65.410156 270.039062 64.777344 271.226562 C 64.140625 272.410156 63.585938 273.636719 63.121094 274.898438 C 62.652344 276.160156 62.273438 277.449219 61.984375 278.761719 C 61.695312 280.078125 61.5 281.40625 61.394531 282.75 C 61.289062 284.089844 61.277344 285.433594 61.359375 286.777344 C 61.441406 288.121094 61.613281 289.453125 61.878906 290.769531 C 62.144531 292.089844 62.5 293.386719 62.945312 294.65625 C 63.386719 295.925781 63.917969 297.160156 64.535156 298.355469 C 65.117188 299.523438 65.78125 300.648438 66.519531 301.722656 C 67.257812 302.800781 68.070312 303.820312 68.949219 304.785156 C 69.832031 305.746094 70.773438 306.648438 71.777344 307.480469 C 72.78125 308.316406 73.839844 309.074219 74.949219 309.765625 C 76.058594 310.453125 77.210938 311.058594 78.40625 311.589844 C 79.601562 312.117188 80.824219 312.558594 82.078125 312.917969 C 83.335938 313.277344 84.609375 313.550781 85.902344 313.734375 C 87.195312 313.914062 88.496094 314.007812 89.800781 314.011719 L 138.867188 314.011719 C 139.210938 315.355469 139.605469 316.679688 140.058594 317.992188 C 140.507812 319.300781 141.011719 320.589844 141.570312 321.859375 C 142.128906 323.128906 142.738281 324.371094 143.398438 325.589844 C 144.058594 326.808594 144.769531 327.996094 145.527344 329.15625 C 146.285156 330.316406 147.09375 331.441406 147.945312 332.535156 C 148.796875 333.625 149.691406 334.683594 150.628906 335.703125 C 151.570312 336.71875 152.550781 337.699219 153.570312 338.636719 C 154.589844 339.574219 155.644531 340.46875 156.738281 341.320312 C 157.832031 342.167969 158.960938 342.972656 160.121094 343.730469 C 161.28125 344.488281 162.46875 345.195312 163.691406 345.855469 C 164.910156 346.515625 166.152344 347.121094 167.421875 347.675781 C 168.691406 348.234375 169.980469 348.738281 171.289062 349.1875 C 172.601562 349.636719 173.929688 350.03125 175.269531 350.371094 C 176.613281 350.710938 177.96875 350.992188 179.335938 351.222656 C 180.703125 351.449219 182.074219 351.621094 183.457031 351.734375 C 184.835938 351.847656 186.21875 351.90625 187.605469 351.90625 C 188.992188 351.90625 190.375 351.847656 191.753906 351.734375 C 193.136719 351.621094 194.511719 351.449219 195.875 351.222656 C 197.242188 350.992188 198.597656 350.710938 199.941406 350.371094 C 201.285156 350.03125 202.609375 349.636719 203.921875 349.1875 C 205.230469 348.738281 206.523438 348.234375 207.792969 347.675781 C 209.058594 347.121094 210.304688 346.515625 211.523438 345.855469 C 212.742188 345.195312 213.929688 344.488281 215.089844 343.730469 C 216.25 342.972656 217.378906 342.167969 218.472656 341.320312 C 219.566406 340.46875 220.625 339.574219 221.644531 338.636719 C 222.664062 337.699219 223.644531 336.71875 224.582031 335.703125 C 225.519531 334.683594 226.417969 333.625 227.269531 332.535156 C 228.121094 331.441406 228.925781 330.316406 229.683594 329.15625 C 230.445312 327.996094 231.152344 326.808594 231.8125 325.589844 C 232.472656 324.371094 233.082031 323.128906 233.640625 321.859375 C 234.199219 320.589844 234.703125 319.300781 235.15625 317.992188 C 235.605469 316.679688 236.003906 315.355469 236.34375 314.011719 L 285.414062 314.011719 C 286.71875 314.007812 288.015625 313.914062 289.308594 313.734375 C 290.601562 313.550781 291.878906 313.277344 293.132812 312.917969 C 294.386719 312.558594 295.613281 312.117188 296.804688 311.589844 C 298 311.058594 299.152344 310.453125 300.261719 309.765625 C 301.371094 309.074219 302.429688 308.316406 303.433594 307.480469 C 304.441406 306.648438 305.382812 305.75 306.261719 304.785156 C 307.144531 303.820312 307.953125 302.800781 308.691406 301.722656 C 309.433594 300.648438 310.09375 299.523438 310.679688 298.355469 C 311.292969 297.160156 311.824219 295.925781 312.269531 294.652344 C 312.714844 293.382812 313.066406 292.085938 313.332031 290.765625 C 313.597656 289.445312 313.769531 288.113281 313.851562 286.769531 C 313.933594 285.425781 313.921875 284.082031 313.816406 282.738281 C 313.710938 281.398438 313.511719 280.070312 313.222656 278.753906 C 312.933594 277.4375 312.554688 276.148438 312.085938 274.886719 C 311.617188 273.625 311.066406 272.398438 310.425781 271.214844 C 309.789062 270.027344 309.074219 268.890625 308.277344 267.804688 Z M 187.632812 326.660156 C 186.53125 326.65625 185.4375 326.582031 184.347656 326.433594 C 183.257812 326.289062 182.183594 326.070312 181.125 325.785156 C 180.0625 325.496094 179.023438 325.140625 178.011719 324.71875 C 176.996094 324.292969 176.015625 323.808594 175.0625 323.253906 C 174.113281 322.703125 173.203125 322.089844 172.332031 321.417969 C 171.460938 320.75 170.640625 320.023438 169.863281 319.242188 C 169.085938 318.464844 168.367188 317.636719 167.699219 316.765625 C 167.03125 315.890625 166.425781 314.976562 165.878906 314.023438 L 209.386719 314.023438 C 208.839844 314.976562 208.230469 315.890625 207.5625 316.765625 C 206.894531 317.636719 206.175781 318.464844 205.398438 319.242188 C 204.625 320.023438 203.800781 320.75 202.929688 321.417969 C 202.058594 322.089844 201.148438 322.703125 200.199219 323.253906 C 199.25 323.808594 198.265625 324.292969 197.253906 324.71875 C 196.238281 325.140625 195.199219 325.496094 194.140625 325.785156 C 193.078125 326.070312 192.003906 326.289062 190.914062 326.433594 C 189.824219 326.582031 188.730469 326.65625 187.632812 326.660156 Z M 288.230469 286.910156 C 287.992188 287.46875 287.621094 287.917969 287.113281 288.253906 C 286.605469 288.589844 286.046875 288.757812 285.4375 288.753906 L 89.824219 288.753906 C 89.214844 288.757812 88.660156 288.589844 88.148438 288.253906 C 87.640625 287.917969 87.269531 287.46875 87.035156 286.910156 C 86.671875 286.238281 86.523438 285.519531 86.578125 284.757812 C 86.636719 284 86.890625 283.3125 87.347656 282.703125 L 107.171875 255.484375 C 107.957031 254.402344 108.558594 253.226562 108.972656 251.957031 C 109.386719 250.683594 109.597656 249.378906 109.597656 248.042969 L 109.597656 154.679688 C 109.574219 153.378906 109.589844 152.082031 109.632812 150.785156 C 109.675781 149.484375 109.75 148.1875 109.859375 146.894531 C 109.964844 145.601562 110.101562 144.308594 110.273438 143.019531 C 110.445312 141.734375 110.644531 140.449219 110.878906 139.171875 C 111.113281 137.894531 111.375 136.625 111.671875 135.359375 C 111.96875 134.09375 112.292969 132.835938 112.652344 131.589844 C 113.007812 130.339844 113.394531 129.101562 113.8125 127.871094 C 114.230469 126.640625 114.679688 125.421875 115.15625 124.214844 C 115.632812 123.003906 116.140625 121.808594 116.675781 120.628906 C 117.214844 119.445312 117.777344 118.273438 118.371094 117.121094 C 118.964844 115.964844 119.585938 114.824219 120.234375 113.699219 C 120.886719 112.574219 121.5625 111.464844 122.265625 110.375 C 122.96875 109.28125 123.699219 108.207031 124.453125 107.152344 C 125.210938 106.097656 125.992188 105.058594 126.800781 104.042969 C 127.605469 103.023438 128.4375 102.027344 129.292969 101.050781 C 130.148438 100.074219 131.027344 99.117188 131.929688 98.183594 C 132.835938 97.25 133.757812 96.339844 134.707031 95.449219 C 135.652344 94.5625 136.621094 93.695312 137.613281 92.855469 C 138.601562 92.015625 139.613281 91.199219 140.640625 90.40625 C 141.671875 89.617188 142.71875 88.847656 143.785156 88.109375 C 144.855469 87.371094 145.9375 86.65625 147.039062 85.96875 C 148.144531 85.28125 149.261719 84.621094 150.394531 83.988281 C 151.53125 83.359375 152.679688 82.753906 153.84375 82.179688 C 155.007812 81.601562 156.183594 81.054688 157.375 80.535156 C 158.566406 80.019531 159.769531 79.53125 160.984375 79.070312 C 162.199219 78.613281 163.425781 78.183594 164.660156 77.785156 C 165.898438 77.382812 167.140625 77.015625 168.394531 76.679688 C 169.648438 76.339844 170.910156 76.03125 172.179688 75.757812 C 173.449219 75.480469 174.722656 75.234375 176.003906 75.023438 C 177.285156 74.808594 178.570312 74.625 179.863281 74.476562 C 181.152344 74.324219 182.445312 74.207031 183.738281 74.117188 C 185.035156 74.03125 186.332031 73.976562 187.632812 73.949219 C 188.929688 73.976562 190.226562 74.03125 191.523438 74.117188 C 192.820312 74.207031 194.113281 74.324219 195.402344 74.476562 C 196.691406 74.625 197.976562 74.808594 199.257812 75.023438 C 200.539062 75.234375 201.8125 75.480469 203.082031 75.757812 C 204.351562 76.03125 205.613281 76.339844 206.867188 76.679688 C 208.121094 77.015625 209.367188 77.382812 210.601562 77.785156 C 211.835938 78.183594 213.0625 78.613281 214.277344 79.070312 C 215.492188 79.53125 216.695312 80.019531 217.886719 80.535156 C 219.078125 81.054688 220.253906 81.601562 221.417969 82.179688 C 222.582031 82.753906 223.730469 83.359375 224.867188 83.988281 C 226 84.621094 227.121094 85.28125 228.222656 85.96875 C 229.324219 86.65625 230.410156 87.371094 231.476562 88.109375 C 232.542969 88.847656 233.589844 89.617188 234.621094 90.40625 C 235.652344 91.199219 236.660156 92.015625 237.652344 92.855469 C 238.640625 93.695312 239.609375 94.5625 240.554688 95.449219 C 241.503906 96.339844 242.429688 97.25 243.332031 98.183594 C 244.234375 99.117188 245.113281 100.074219 245.96875 101.050781 C 246.824219 102.027344 247.65625 103.023438 248.464844 104.042969 C 249.269531 105.058594 250.050781 106.097656 250.808594 107.152344 C 251.5625 108.207031 252.292969 109.28125 252.996094 110.375 C 253.703125 111.464844 254.378906 112.574219 255.027344 113.699219 C 255.675781 114.824219 256.296875 115.964844 256.890625 117.121094 C 257.484375 118.273438 258.050781 119.445312 258.585938 120.628906 C 259.121094 121.808594 259.628906 123.003906 260.105469 124.214844 C 260.582031 125.421875 261.03125 126.640625 261.449219 127.871094 C 261.867188 129.101562 262.253906 130.339844 262.613281 131.589844 C 262.96875 132.835938 263.296875 134.09375 263.589844 135.359375 C 263.886719 136.625 264.152344 137.894531 264.382812 139.171875 C 264.617188 140.449219 264.820312 141.734375 264.988281 143.019531 C 265.160156 144.308594 265.296875 145.601562 265.40625 146.894531 C 265.511719 148.1875 265.585938 149.484375 265.632812 150.785156 C 265.675781 152.082031 265.6875 153.378906 265.667969 154.679688 L 265.667969 248.042969 C 265.667969 249.378906 265.875 250.683594 266.289062 251.957031 C 266.703125 253.226562 267.304688 254.402344 268.09375 255.484375 L 287.914062 282.703125 C 288.371094 283.3125 288.628906 284 288.683594 284.757812 C 288.742188 285.519531 288.589844 286.238281 288.230469 286.910156 Z M 288.230469 286.910156 "
          fill-opacity="1" fill-rule="nonzero"/>
</svg>
