<svg xmlns="http://www.w3.org/2000/svg" width="500" zoomAndPan="magnify"
     viewBox="0 0 375 374.999991" height="500" preserveAspectRatio="xMidYMid meet" version="1.0">
    <defs>
        <clipPath id="ed9d92cda7">
            <path
                d="M 4.0625 34.101562 L 370.8125 34.101562 L 370.8125 340.851562 L 4.0625 340.851562 Z M 4.0625 34.101562 "
                clip-rule="nonzero"/>
        </clipPath>
        <clipPath id="b06f137749">
            <path d="M 4.0625 102 L 370.8125 102 L 370.8125 111 L 4.0625 111 Z M 4.0625 102 " clip-rule="nonzero"/>
        </clipPath>
        <clipPath id="627e90af71">
            <path d="M 128 102 L 137 102 L 137 340.851562 L 128 340.851562 Z M 128 102 " clip-rule="nonzero"/>
        </clipPath>
        <clipPath id="dbc3b910d9">
            <path d="M 298 266 L 334 266 L 334 340.851562 L 298 340.851562 Z M 298 266 " clip-rule="nonzero"/>
        </clipPath>
        <clipPath id="19f7b8b62c">
            <path d="M 254 244 L 289 244 L 289 340.851562 L 254 340.851562 Z M 254 244 " clip-rule="nonzero"/>
        </clipPath>
        <clipPath id="4734f819a1">
            <path d="M 209 231 L 245 231 L 245 340.851562 L 209 340.851562 Z M 209 231 " clip-rule="nonzero"/>
        </clipPath>
        <clipPath id="4e3e03bc1b">
            <path d="M 165 200 L 200 200 L 200 340.851562 L 165 340.851562 Z M 165 200 " clip-rule="nonzero"/>
        </clipPath>
    </defs>
    <g clip-path="url(#ed9d92cda7)">
        <path fill="#000000"
              d="M 34.921875 42.089844 C 22.394531 42.089844 12.203125 52.277344 12.203125 64.804688 L 12.203125 310.132812 C 12.203125 322.660156 22.394531 332.855469 34.921875 332.855469 L 339.707031 332.855469 C 352.234375 332.855469 362.429688 322.660156 362.429688 310.132812 L 362.429688 64.804688 C 362.429688 52.273438 352.234375 42.085938 339.707031 42.085938 L 34.921875 42.085938 Z M 339.707031 340.851562 L 34.921875 340.851562 C 17.984375 340.851562 4.210938 327.074219 4.210938 310.132812 L 4.210938 64.804688 C 4.210938 47.867188 17.984375 34.089844 34.921875 34.089844 L 339.707031 34.089844 C 356.640625 34.089844 370.421875 47.867188 370.421875 64.804688 L 370.421875 310.128906 C 370.421875 327.074219 356.640625 340.851562 339.707031 340.851562 Z M 339.707031 340.851562 "
              fill-opacity="1" fill-rule="evenodd"/>
    </g>
    <g clip-path="url(#b06f137749)">
        <path fill="#000000"
              d="M 366.425781 110.09375 L 8.207031 110.09375 C 6 110.09375 4.207031 108.3125 4.207031 106.097656 C 4.207031 103.890625 6 102.097656 8.207031 102.097656 L 366.425781 102.097656 C 368.632812 102.097656 370.421875 103.890625 370.421875 106.097656 C 370.421875 108.3125 368.632812 110.097656 366.425781 110.09375 Z M 366.425781 110.09375 "
              fill-opacity="1" fill-rule="evenodd"/>
    </g>
    <path fill="#000000"
          d="M 215.710938 62.730469 C 210.550781 62.730469 206.351562 66.929688 206.351562 72.09375 C 206.351562 77.257812 210.550781 81.457031 215.710938 81.457031 C 220.871094 81.457031 225.070312 77.257812 225.070312 72.09375 C 225.070312 66.929688 220.871094 62.730469 215.710938 62.730469 Z M 215.710938 89.453125 C 206.140625 89.453125 198.355469 81.664062 198.355469 72.09375 C 198.355469 62.523438 206.140625 54.734375 215.710938 54.734375 C 225.28125 54.734375 233.066406 62.523438 233.066406 72.09375 C 233.066406 81.664062 225.28125 89.453125 215.710938 89.453125 Z M 215.710938 89.453125 "
          fill-opacity="1" fill-rule="evenodd"/>
    <path fill="#000000"
          d="M 270.203125 62.730469 C 265.042969 62.730469 260.84375 66.929688 260.84375 72.09375 C 260.84375 77.257812 265.042969 81.457031 270.203125 81.457031 C 275.367188 81.457031 279.5625 77.257812 279.5625 72.09375 C 279.5625 66.929688 275.367188 62.730469 270.203125 62.730469 Z M 270.203125 89.453125 C 260.636719 89.453125 252.851562 81.664062 252.851562 72.09375 C 252.851562 62.523438 260.636719 54.734375 270.203125 54.734375 C 279.773438 54.734375 287.558594 62.523438 287.558594 72.09375 C 287.558594 81.664062 279.773438 89.453125 270.203125 89.453125 Z M 270.203125 89.453125 "
          fill-opacity="1" fill-rule="evenodd"/>
    <path fill="#000000"
          d="M 324.699219 62.730469 C 319.539062 62.730469 315.339844 66.929688 315.339844 72.09375 C 315.339844 77.257812 319.539062 81.457031 324.699219 81.457031 C 329.859375 81.457031 334.058594 77.257812 334.058594 72.09375 C 334.058594 66.929688 329.859375 62.730469 324.699219 62.730469 Z M 324.699219 89.453125 C 315.128906 89.453125 307.34375 81.664062 307.34375 72.09375 C 307.34375 62.523438 315.128906 54.734375 324.699219 54.734375 C 334.269531 54.734375 342.054688 62.523438 342.054688 72.09375 C 342.058594 81.664062 334.269531 89.453125 324.699219 89.453125 Z M 324.699219 89.453125 "
          fill-opacity="1" fill-rule="evenodd"/>
    <path fill="#000000"
          d="M 46.894531 65.773438 C 43.40625 65.773438 40.570312 68.605469 40.570312 72.09375 C 40.570312 75.585938 43.40625 78.417969 46.894531 78.417969 L 145.253906 78.417969 C 148.738281 78.417969 151.574219 75.585938 151.574219 72.09375 C 151.574219 68.605469 148.738281 65.773438 145.253906 65.773438 Z M 145.253906 86.414062 L 46.894531 86.414062 C 39 86.414062 32.574219 79.992188 32.574219 72.09375 C 32.574219 64.199219 39 57.773438 46.894531 57.773438 L 145.253906 57.773438 C 153.148438 57.773438 159.570312 64.199219 159.570312 72.09375 C 159.570312 79.992188 153.148438 86.414062 145.253906 86.414062 Z M 145.253906 86.414062 "
          fill-opacity="1" fill-rule="evenodd"/>
    <path fill="#000000"
          d="M 70.160156 138.558594 C 52.042969 138.558594 37.304688 153.304688 37.304688 171.421875 C 37.304688 189.546875 52.042969 204.285156 70.160156 204.285156 C 88.28125 204.28125 103.019531 189.546875 103.019531 171.421875 C 103.019531 153.304688 88.28125 138.558594 70.160156 138.558594 Z M 70.160156 212.28125 C 47.636719 212.28125 29.308594 193.953125 29.308594 171.421875 C 29.308594 148.886719 47.636719 130.5625 70.160156 130.5625 C 92.6875 130.5625 111.015625 148.890625 111.015625 171.421875 C 111.015625 193.953125 92.6875 212.28125 70.160156 212.28125 Z M 70.160156 212.28125 "
          fill-opacity="1" fill-rule="evenodd"/>
    <path fill="#000000"
          d="M 107.015625 175.417969 L 70.160156 175.417969 C 67.953125 175.417969 66.164062 173.628906 66.164062 171.421875 L 66.164062 134.5625 C 66.164062 132.355469 67.953125 130.5625 70.160156 130.5625 C 72.371094 130.5625 74.160156 132.355469 74.160156 134.5625 L 74.160156 167.421875 L 107.015625 167.421875 C 109.226562 167.421875 111.015625 169.214844 111.015625 171.421875 C 111.015625 173.628906 109.226562 175.421875 107.015625 175.417969 Z M 107.015625 175.417969 "
          fill-opacity="1" fill-rule="evenodd"/>
    <path fill="#000000"
          d="M 107.019531 237.3125 L 33.304688 237.3125 C 31.097656 237.3125 29.308594 235.523438 29.308594 233.3125 C 29.308594 231.105469 31.097656 229.316406 33.304688 229.316406 L 107.019531 229.316406 C 109.226562 229.316406 111.015625 231.105469 111.015625 233.3125 C 111.015625 235.523438 109.226562 237.3125 107.019531 237.3125 Z M 107.019531 237.3125 "
          fill-opacity="1" fill-rule="evenodd"/>
    <path fill="#000000"
          d="M 107.019531 262.335938 L 33.304688 262.335938 C 31.097656 262.335938 29.308594 260.546875 29.308594 258.339844 C 29.308594 256.128906 31.097656 254.339844 33.304688 254.339844 L 107.019531 254.339844 C 109.226562 254.339844 111.015625 256.128906 111.015625 258.339844 C 111.015625 260.546875 109.226562 262.335938 107.019531 262.335938 Z M 107.019531 262.335938 "
          fill-opacity="1" fill-rule="evenodd"/>
    <path fill="#000000"
          d="M 107.019531 287.367188 L 33.304688 287.367188 C 31.097656 287.367188 29.308594 285.574219 29.308594 283.367188 C 29.308594 281.160156 31.097656 279.371094 33.304688 279.371094 L 107.019531 279.371094 C 109.226562 279.371094 111.015625 281.160156 111.015625 283.367188 C 111.015625 285.574219 109.226562 287.367188 107.019531 287.367188 Z M 107.019531 287.367188 "
          fill-opacity="1" fill-rule="evenodd"/>
    <path fill="#000000"
          d="M 107.019531 312.390625 L 33.304688 312.390625 C 31.097656 312.390625 29.308594 310.597656 29.308594 308.390625 C 29.308594 306.183594 31.097656 304.394531 33.304688 304.394531 L 107.019531 304.394531 C 109.226562 304.394531 111.015625 306.183594 111.015625 308.390625 C 111.015625 310.597656 109.226562 312.390625 107.019531 312.390625 Z M 107.019531 312.390625 "
          fill-opacity="1" fill-rule="evenodd"/>
    <g clip-path="url(#627e90af71)">
        <path fill="#000000"
              d="M 132.117188 340.855469 C 129.910156 340.855469 128.117188 339.0625 128.117188 336.855469 L 128.117188 106.097656 C 128.117188 103.890625 129.910156 102.101562 132.117188 102.101562 C 134.324219 102.097656 136.113281 103.890625 136.113281 106.097656 L 136.117188 336.855469 C 136.117188 339.0625 134.324219 340.855469 132.117188 340.855469 Z M 132.117188 340.855469 "
              fill-opacity="1" fill-rule="evenodd"/>
    </g>
    <g clip-path="url(#dbc3b910d9)">
        <path fill="#000000"
              d="M 329.226562 340.855469 C 327.019531 340.855469 325.230469 339.0625 325.230469 336.855469 L 325.230469 274.207031 L 306.773438 274.207031 L 306.773438 336.855469 C 306.773438 339.0625 304.984375 340.855469 302.773438 340.855469 C 300.566406 340.855469 298.777344 339.0625 298.777344 336.855469 L 298.777344 270.207031 C 298.777344 268 300.566406 266.207031 302.773438 266.207031 L 329.226562 266.207031 C 331.4375 266.207031 333.226562 268 333.226562 270.207031 L 333.226562 336.855469 C 333.226562 339.0625 331.4375 340.855469 329.226562 340.855469 Z M 329.226562 340.855469 "
              fill-opacity="1" fill-rule="evenodd"/>
    </g>
    <g clip-path="url(#19f7b8b62c)">
        <path fill="#000000"
              d="M 284.742188 340.855469 C 282.53125 340.855469 280.742188 339.0625 280.742188 336.855469 L 280.742188 252.230469 L 262.285156 252.230469 L 262.285156 336.855469 C 262.285156 339.0625 260.496094 340.855469 258.289062 340.855469 C 256.078125 340.855469 254.289062 339.0625 254.289062 336.855469 L 254.289062 248.234375 C 254.289062 246.015625 256.078125 244.234375 258.289062 244.234375 L 284.742188 244.234375 C 286.949219 244.234375 288.738281 246.015625 288.738281 248.234375 L 288.738281 336.855469 C 288.738281 339.0625 286.949219 340.855469 284.742188 340.855469 Z M 284.742188 340.855469 "
              fill-opacity="1" fill-rule="evenodd"/>
    </g>
    <g clip-path="url(#4734f819a1)">
        <path fill="#000000"
              d="M 240.253906 340.855469 C 238.042969 340.855469 236.253906 339.0625 236.253906 336.855469 L 236.253906 239.035156 L 217.796875 239.035156 L 217.796875 336.855469 C 217.796875 339.0625 216.007812 340.855469 213.800781 340.855469 C 211.59375 340.855469 209.800781 339.0625 209.800781 336.855469 L 209.800781 235.039062 C 209.800781 232.832031 211.59375 231.039062 213.800781 231.039062 L 240.253906 231.039062 C 242.460938 231.039062 244.25 232.832031 244.25 235.039062 L 244.25 336.855469 C 244.25 339.0625 242.460938 340.855469 240.253906 340.855469 Z M 240.253906 340.855469 "
              fill-opacity="1" fill-rule="evenodd"/>
    </g>
    <g clip-path="url(#4e3e03bc1b)">
        <path fill="#000000"
              d="M 195.761719 340.855469 C 193.554688 340.855469 191.765625 339.0625 191.765625 336.855469 L 191.765625 208.265625 L 173.308594 208.265625 L 173.308594 336.855469 C 173.308594 339.0625 171.519531 340.855469 169.3125 340.855469 C 167.101562 340.855469 165.3125 339.0625 165.3125 336.855469 L 165.3125 204.265625 C 165.3125 202.058594 167.101562 200.269531 169.3125 200.269531 L 195.761719 200.269531 C 197.972656 200.269531 199.761719 202.058594 199.761719 204.265625 L 199.761719 336.855469 C 199.761719 339.0625 197.972656 340.855469 195.761719 340.855469 Z M 195.761719 340.855469 "
              fill-opacity="1" fill-rule="evenodd"/>
    </g>
    <path fill="#000000"
          d="M 341.539062 198.820312 L 230.347656 198.820312 C 228.140625 198.820312 226.347656 197.027344 226.347656 194.820312 C 226.347656 192.613281 228.140625 190.820312 230.347656 190.820312 L 341.539062 190.820312 C 343.746094 190.820312 345.539062 192.613281 345.539062 194.820312 C 345.539062 197.027344 343.746094 198.820312 341.539062 198.820312 Z M 341.539062 198.820312 "
          fill-opacity="1" fill-rule="evenodd"/>
    <path fill="#000000"
          d="M 341.539062 169.246094 L 230.347656 169.246094 C 228.140625 169.246094 226.347656 167.457031 226.347656 165.25 C 226.347656 163.042969 228.140625 161.25 230.347656 161.25 L 341.539062 161.25 C 343.746094 161.25 345.539062 163.042969 345.539062 165.25 C 345.539062 167.457031 343.746094 169.246094 341.539062 169.246094 Z M 341.539062 169.246094 "
          fill-opacity="1" fill-rule="evenodd"/>
    <path fill="#000000"
          d="M 341.539062 139.675781 L 230.347656 139.675781 C 228.140625 139.675781 226.347656 137.886719 226.347656 135.675781 C 226.347656 133.460938 228.140625 131.679688 230.347656 131.679688 L 341.539062 131.679688 C 343.746094 131.679688 345.539062 133.460938 345.539062 135.675781 C 345.539062 137.886719 343.746094 139.675781 341.539062 139.675781 Z M 341.539062 139.675781 "
          fill-opacity="1" fill-rule="evenodd"/>
</svg>
