<svg xmlns="http://www.w3.org/2000/svg" width="500" zoomAndPan="magnify"
     viewBox="0 0 375 374.999991" height="500" preserveAspectRatio="xMidYMid meet" version="1.0">
    <defs>
        <clipPath id="bde59d05f4">
            <path d="M 18.75 18.75 L 356.25 18.75 L 356.25 356.25 L 18.75 356.25 Z M 18.75 18.75 " clip-rule="nonzero"/>
        </clipPath>
    </defs>
    <g clip-path="url(#bde59d05f4)">
        <path fill="#000000"
              d="M 340.957031 70.164062 L 314.0625 62.253906 L 314.0625 37.207031 C 314.0625 26.921875 305.886719 18.75 295.605469 18.75 L 39.84375 18.75 C 28.242188 18.75 18.75 28.242188 18.75 39.84375 L 18.75 335.15625 C 18.75 346.757812 28.242188 356.25 39.84375 356.25 L 295.605469 356.25 C 305.886719 356.25 314.0625 348.074219 314.0625 337.792969 L 314.0625 186.179688 L 340.957031 178.269531 C 349.921875 175.632812 356.25 167.460938 356.25 157.96875 L 356.25 90.203125 C 356.25 80.976562 349.921875 72.539062 340.957031 70.164062 Z M 221.777344 63.574219 L 261.328125 63.574219 L 261.328125 311.425781 L 221.777344 311.425781 L 221.777344 281.628906 C 221.777344 275.039062 226.257812 269.5 232.324219 267.65625 C 243.132812 264.753906 250.515625 254.734375 250.515625 243.660156 L 250.515625 136.609375 C 250.515625 125.535156 242.871094 115.515625 232.324219 112.617188 C 225.996094 111.035156 221.777344 105.234375 221.777344 98.640625 Z M 211.230469 281.628906 L 211.230469 345.703125 L 39.84375 345.703125 C 34.042969 345.703125 29.296875 340.957031 29.296875 335.15625 L 29.296875 39.84375 C 29.296875 34.042969 34.042969 29.296875 39.84375 29.296875 L 211.230469 29.296875 L 211.230469 98.640625 C 211.230469 109.714844 218.875 119.734375 229.421875 122.636719 C 235.75 124.21875 239.96875 130.019531 239.96875 136.609375 L 239.96875 243.660156 C 239.96875 250.253906 235.488281 255.789062 229.421875 257.636719 C 218.875 260.535156 211.230469 270.554688 211.230469 281.628906 Z M 345.703125 158.230469 C 345.703125 162.976562 342.539062 166.933594 338.054688 168.25 L 307.207031 177.214844 C 304.832031 177.742188 303.515625 179.851562 303.515625 182.226562 L 303.515625 337.792969 C 303.515625 342.273438 300.085938 345.703125 295.605469 345.703125 L 221.777344 345.703125 L 221.777344 321.972656 L 287.695312 321.972656 C 290.59375 321.972656 292.96875 319.597656 292.96875 316.699219 L 292.96875 58.300781 C 292.96875 55.398438 290.59375 53.027344 287.695312 53.027344 L 221.777344 53.027344 L 221.777344 29.296875 L 295.605469 29.296875 C 300.085938 29.296875 303.515625 32.722656 303.515625 37.207031 L 303.515625 66.210938 C 303.515625 68.582031 305.097656 70.691406 307.207031 71.21875 L 338.054688 80.183594 C 342.539062 81.503906 345.703125 85.722656 345.703125 90.203125 Z M 271.875 311.425781 L 271.875 63.574219 L 282.421875 63.574219 L 282.421875 311.425781 Z M 271.875 311.425781 "
              fill-opacity="1" fill-rule="nonzero"/>
    </g>
    <path fill="#000000"
          d="M 179.589844 45.117188 L 58.300781 45.117188 C 52.5 45.117188 47.753906 49.863281 47.753906 55.664062 L 47.753906 97.851562 C 47.753906 103.652344 52.5 108.398438 58.300781 108.398438 L 179.589844 108.398438 C 185.390625 108.398438 190.136719 103.652344 190.136719 97.851562 L 190.136719 55.664062 C 190.136719 49.863281 185.390625 45.117188 179.589844 45.117188 Z M 179.589844 97.851562 L 58.300781 97.851562 L 58.300781 55.664062 L 179.589844 55.664062 Z M 179.589844 97.851562 "
          fill-opacity="1" fill-rule="nonzero"/>
    <path fill="#000000"
          d="M 179.589844 118.945312 L 58.300781 118.945312 C 55.398438 118.945312 53.027344 121.316406 53.027344 124.21875 C 53.027344 127.117188 55.398438 129.492188 58.300781 129.492188 L 179.589844 129.492188 C 182.488281 129.492188 184.863281 127.117188 184.863281 124.21875 C 184.863281 121.316406 182.488281 118.945312 179.589844 118.945312 Z M 179.589844 118.945312 "
          fill-opacity="1" fill-rule="nonzero"/>
    <path fill="#000000"
          d="M 179.589844 145.3125 L 58.300781 145.3125 C 55.398438 145.3125 53.027344 147.683594 53.027344 150.585938 C 53.027344 153.484375 55.398438 155.859375 58.300781 155.859375 L 179.589844 155.859375 C 182.488281 155.859375 184.863281 153.484375 184.863281 150.585938 C 184.863281 147.683594 182.488281 145.3125 179.589844 145.3125 Z M 179.589844 145.3125 "
          fill-opacity="1" fill-rule="nonzero"/>
    <path fill="#000000"
          d="M 179.589844 319.335938 L 58.300781 319.335938 C 55.398438 319.335938 53.027344 321.707031 53.027344 324.609375 C 53.027344 327.507812 55.398438 329.882812 58.300781 329.882812 L 179.589844 329.882812 C 182.488281 329.882812 184.863281 327.507812 184.863281 324.609375 C 184.863281 321.707031 182.488281 319.335938 179.589844 319.335938 Z M 179.589844 319.335938 "
          fill-opacity="1" fill-rule="nonzero"/>
</svg>
