<svg xmlns="http://www.w3.org/2000/svg" width="500" zoomAndPan="magnify"
     viewBox="0 0 375 374.999991" height="500" preserveAspectRatio="xMidYMid meet" version="1.0">
    <defs>
        <clipPath id="05adc20ac1">
            <path d="M 162 346 L 212 346 L 212 366.367188 L 162 366.367188 Z M 162 346 " clip-rule="nonzero"/>
        </clipPath>
        <clipPath id="9ab73453da">
            <path d="M 251 8.617188 L 366 8.617188 L 366 122 L 251 122 Z M 251 8.617188 " clip-rule="nonzero"/>
        </clipPath>
        <clipPath id="126f803497">
            <path d="M 8.617188 8.617188 L 124 8.617188 L 124 122 L 8.617188 122 Z M 8.617188 8.617188 "
                  clip-rule="nonzero"/>
        </clipPath>
    </defs>
    <path fill="#040606"
          d="M 64.214844 130.996094 C 67.753906 131.46875 70.964844 129.027344 71.464844 125.613281 C 75.25 99.90625 94.832031 78.757812 120.238281 72.980469 C 123.625 72.230469 125.792969 68.769531 125.046875 65.355469 C 124.273438 61.992188 120.8125 59.777344 117.449219 60.550781 C 86.933594 67.449219 63.394531 92.859375 58.859375 123.746094 C 58.335938 127.234375 60.753906 130.472656 64.214844 130.996094 "
          fill-opacity="1" fill-rule="nonzero"/>
    <g clip-path="url(#05adc20ac1)">
        <path fill="#040606"
              d="M 187.171875 366.046875 C 199.03125 366.046875 208.917969 357.878906 211.785156 346.917969 L 162.5625 346.917969 C 165.425781 357.878906 175.316406 366.046875 187.171875 366.046875 "
              fill-opacity="1" fill-rule="nonzero"/>
    </g>
    <path fill="#040606"
          d="M 308.335938 327.785156 L 308.335938 310.175781 C 308.335938 307.757812 306.964844 305.566406 304.796875 304.46875 C 291.246094 297.667969 282.828125 284.019531 282.828125 268.871094 L 282.828125 200.246094 C 282.828125 174.710938 272.886719 150.675781 254.855469 132.566406 C 242.699219 120.484375 227.503906 111.8125 210.886719 107.503906 C 207.773438 106.707031 205.753906 103.71875 206.152344 100.53125 C 206.253906 99.757812 206.304688 99.011719 206.304688 98.214844 C 206.304688 87.652344 197.734375 79.082031 187.171875 79.082031 C 176.609375 79.082031 168.042969 87.652344 168.042969 98.214844 C 168.042969 98.910156 168.066406 99.632812 168.191406 100.355469 C 168.789062 103.617188 166.746094 106.78125 163.53125 107.628906 C 121.136719 118.789062 91.515625 157.949219 91.515625 202.859375 L 91.515625 268.871094 C 91.515625 276.195312 89.476562 283.445312 85.613281 289.773438 C 81.753906 296.050781 76.199219 301.105469 69.597656 304.46875 C 67.378906 305.566406 66.007812 307.757812 66.007812 310.175781 L 66.007812 327.785156 C 66.007812 331.296875 68.875 334.164062 72.386719 334.164062 L 301.957031 334.164062 C 305.472656 334.164062 308.335938 331.296875 308.335938 327.785156 "
          fill-opacity="1" fill-rule="nonzero"/>
    <path fill="#040606"
          d="M 315.484375 123.746094 C 310.953125 92.859375 287.410156 67.449219 256.921875 60.550781 C 253.558594 59.753906 250.070312 62.019531 249.296875 65.355469 C 248.550781 68.695312 250.742188 72.230469 254.105469 72.980469 C 279.515625 78.757812 299.09375 99.90625 302.878906 125.613281 C 303.378906 129.027344 306.617188 131.492188 310.128906 130.996094 C 313.589844 130.472656 316.007812 127.234375 315.484375 123.746094 "
          fill-opacity="1" fill-rule="nonzero"/>
    <g clip-path="url(#9ab73453da)">
        <path fill="#040606"
              d="M 353.074219 116.398438 C 353.621094 119.859375 356.910156 122.226562 360.398438 121.652344 C 362.066406 121.378906 363.535156 120.484375 364.53125 119.089844 C 365.53125 117.691406 365.929688 116.023438 365.628906 114.355469 C 356.636719 59.355469 313.589844 17.03125 258.539062 9.011719 C 258.242188 8.960938 257.941406 8.933594 257.644531 8.933594 C 254.53125 8.933594 251.789062 11.226562 251.316406 14.390625 C 250.816406 17.878906 253.234375 21.117188 256.722656 21.613281 C 306.21875 28.839844 344.953125 66.925781 353.074219 116.398438 "
              fill-opacity="1" fill-rule="nonzero"/>
    </g>
    <g clip-path="url(#126f803497)">
        <path fill="#040606"
              d="M 13.972656 121.652344 C 17.335938 122.226562 20.699219 119.859375 21.269531 116.398438 C 29.390625 66.925781 68.125 28.839844 117.648438 21.613281 C 121.109375 21.117188 123.527344 17.878906 123.027344 14.390625 C 122.554688 11.226562 119.816406 8.933594 116.675781 8.933594 C 116.378906 8.933594 116.078125 8.960938 115.753906 9.011719 C 60.753906 17.03125 17.707031 59.355469 8.691406 114.355469 C 8.417969 116.023438 8.816406 117.691406 9.8125 119.089844 C 10.808594 120.484375 12.277344 121.378906 13.972656 121.652344 "
              fill-opacity="1" fill-rule="nonzero"/>
    </g>
</svg>
