<svg xmlns="http://www.w3.org/2000/svg" width="500" zoomAndPan="magnify"
     viewBox="0 0 375 374.999991" height="500" preserveAspectRatio="xMidYMid meet" version="1.0">
    <defs>
        <clipPath id="f17f9fcdc5">
            <path d="M 121 235 L 254 235 L 254 368.175781 L 121 368.175781 Z M 121 235 " clip-rule="nonzero"/>
        </clipPath>
        <clipPath id="ebe8a87c97">
            <path d="M 6.675781 6.675781 L 368.175781 6.675781 L 368.175781 308 L 6.675781 308 Z M 6.675781 6.675781 "
                  clip-rule="nonzero"/>
        </clipPath>
    </defs>
    <path fill="#000000"
          d="M 187.425781 271.773438 C 170.8125 271.773438 157.300781 285.289062 157.300781 301.898438 C 157.300781 318.511719 170.8125 332.023438 187.425781 332.023438 C 204.035156 332.023438 217.550781 318.511719 217.550781 301.898438 C 217.550781 285.289062 204.035156 271.773438 187.425781 271.773438 Z M 187.425781 319.976562 C 177.460938 319.976562 169.351562 311.863281 169.351562 301.898438 C 169.351562 291.933594 177.460938 283.824219 187.425781 283.824219 C 197.390625 283.824219 205.5 291.933594 205.5 301.898438 C 205.5 311.863281 197.390625 319.976562 187.425781 319.976562 Z M 187.425781 319.976562 "
          fill-opacity="1" fill-rule="nonzero"/>
    <g clip-path="url(#f17f9fcdc5)">
        <path fill="#000000"
              d="M 247.675781 319.976562 C 251.007812 319.976562 253.699219 317.28125 253.699219 313.949219 L 253.699219 289.851562 C 253.699219 286.519531 251.007812 283.824219 247.675781 283.824219 L 238.414062 283.582031 C 237.835938 281.949219 237.171875 280.367188 236.316406 278.566406 L 242.804688 272.074219 C 245.164062 269.71875 245.164062 265.914062 242.804688 263.554688 L 225.769531 246.519531 C 223.410156 244.164062 219.605469 244.164062 217.25 246.519531 L 210.511719 252.886719 C 208.957031 252.15625 207.375 251.496094 205.5 250.835938 L 205.5 241.648438 C 205.5 238.316406 202.804688 235.625 199.476562 235.625 L 175.375 235.625 C 172.042969 235.625 169.351562 238.316406 169.351562 241.648438 L 169.109375 250.910156 C 167.476562 251.488281 165.890625 252.152344 164.089844 253.007812 L 157.601562 246.519531 C 155.246094 244.164062 151.4375 244.164062 149.082031 246.519531 L 132.042969 263.554688 C 129.6875 265.914062 129.6875 269.71875 132.042969 272.074219 L 138.410156 278.8125 C 137.683594 280.367188 137.019531 281.949219 136.363281 283.824219 L 127.175781 283.824219 C 123.84375 283.824219 121.148438 286.519531 121.148438 289.851562 L 121.148438 313.949219 C 121.148438 317.28125 123.84375 319.976562 127.175781 319.976562 L 136.433594 320.214844 C 137.011719 321.847656 137.675781 323.433594 138.53125 325.234375 L 132.042969 331.722656 C 129.6875 334.078125 129.6875 337.886719 132.042969 340.242188 L 149.082031 357.28125 C 151.4375 359.636719 155.246094 359.636719 157.601562 357.28125 L 164.335938 350.914062 C 165.890625 351.640625 167.476562 352.304688 169.351562 352.960938 L 169.351562 362.148438 C 169.351562 365.480469 172.042969 368.175781 175.375 368.175781 L 199.476562 368.175781 C 202.804688 368.175781 205.5 365.480469 205.5 362.148438 L 205.742188 352.890625 C 207.375 352.3125 208.957031 351.648438 210.757812 350.792969 L 217.25 357.28125 C 219.605469 359.636719 223.410156 359.636719 225.769531 357.28125 L 242.804688 340.242188 C 245.164062 337.886719 245.164062 334.078125 242.804688 331.722656 L 236.4375 324.988281 C 237.167969 323.433594 237.828125 321.847656 238.410156 320.214844 L 232.734375 318.199219 L 238.492188 319.976562 Z M 227.796875 333.753906 L 230.027344 335.984375 L 221.507812 344.503906 L 219.277344 342.273438 C 215.640625 338.640625 210.179688 337.75 205.367188 340.019531 C 204.179688 340.585938 202.957031 341.085938 201.679688 341.542969 C 196.679688 343.34375 193.449219 347.828125 193.449219 352.96875 L 193.449219 356.125 L 181.398438 356.125 L 181.398438 352.96875 C 181.398438 347.828125 178.171875 343.34375 173.144531 341.539062 C 171.890625 341.09375 170.667969 340.59375 169.476562 340.019531 C 164.667969 337.765625 159.210938 338.644531 155.570312 342.277344 L 153.339844 344.507812 L 144.820312 335.988281 L 147.050781 333.761719 C 150.691406 330.121094 151.570312 324.667969 149.304688 319.847656 C 148.738281 318.660156 148.238281 317.4375 147.78125 316.160156 C 145.980469 311.152344 141.496094 307.925781 136.355469 307.925781 L 133.199219 307.925781 L 133.199219 295.875 L 136.355469 295.875 C 141.496094 295.875 145.980469 292.644531 147.785156 287.621094 C 148.230469 286.367188 148.730469 285.144531 149.304688 283.953125 C 151.5625 279.136719 150.683594 273.683594 147.046875 270.046875 L 144.816406 267.816406 L 153.335938 259.296875 L 155.566406 261.527344 C 159.203125 265.164062 164.664062 266.050781 169.476562 263.78125 C 170.664062 263.214844 171.886719 262.714844 173.164062 262.253906 C 178.171875 260.453125 181.398438 255.972656 181.398438 250.832031 L 181.398438 247.675781 L 193.449219 247.675781 L 193.449219 250.832031 C 193.449219 255.972656 196.679688 260.453125 201.703125 262.261719 C 202.957031 262.707031 204.179688 263.207031 205.375 263.78125 C 210.191406 266.03125 215.644531 265.160156 219.277344 261.519531 L 221.507812 259.289062 L 230.027344 267.808594 L 227.796875 270.039062 C 224.160156 273.679688 223.28125 279.132812 225.542969 283.953125 C 226.109375 285.136719 226.609375 286.359375 227.070312 287.636719 C 228.871094 292.644531 233.351562 295.875 238.492188 295.875 L 241.648438 295.875 L 241.648438 307.925781 L 238.492188 307.925781 C 233.351562 307.925781 228.871094 311.152344 227.070312 316.15625 C 227.0625 316.160156 227.0625 316.171875 227.058594 316.179688 C 226.613281 317.433594 226.109375 318.65625 225.539062 319.847656 C 223.28125 324.664062 224.164062 330.121094 227.796875 333.753906 Z M 227.796875 333.753906 "
              fill-opacity="1" fill-rule="nonzero"/>
    </g>
    <path fill="#000000"
          d="M 78.976562 54.875 C 52.398438 54.875 30.773438 76.5 30.773438 103.074219 C 30.773438 129.652344 52.398438 151.273438 78.976562 151.273438 C 105.550781 151.273438 127.175781 129.652344 127.175781 103.074219 C 127.175781 99.742188 124.480469 97.050781 121.148438 97.050781 L 85 97.050781 L 85 60.898438 C 85 57.566406 82.304688 54.875 78.976562 54.875 Z M 114.625 109.101562 C 111.746094 126.175781 96.855469 139.226562 78.976562 139.226562 C 59.039062 139.226562 42.824219 123.011719 42.824219 103.074219 C 42.824219 85.191406 55.875 70.304688 72.949219 67.425781 L 72.949219 103.074219 C 72.949219 106.40625 75.644531 109.101562 78.976562 109.101562 Z M 114.625 109.101562 "
          fill-opacity="1" fill-rule="nonzero"/>
    <path fill="#000000"
          d="M 145.25 85 C 148.582031 85 151.273438 82.304688 151.273438 78.976562 C 151.273438 52.398438 129.652344 30.773438 103.074219 30.773438 C 99.742188 30.773438 97.050781 33.46875 97.050781 36.800781 L 97.050781 78.976562 C 97.050781 82.304688 99.742188 85 103.074219 85 Z M 109.101562 43.324219 C 124.214844 45.875 136.175781 57.832031 138.726562 72.949219 L 109.101562 72.949219 Z M 109.101562 43.324219 "
          fill-opacity="1" fill-rule="nonzero"/>
    <path fill="#000000"
          d="M 289.851562 127.175781 C 293.179688 127.175781 295.875 124.480469 295.875 121.148438 L 295.875 60.898438 C 295.875 57.566406 293.179688 54.875 289.851562 54.875 L 265.75 54.875 C 262.417969 54.875 259.726562 57.566406 259.726562 60.898438 L 259.726562 121.148438 C 259.726562 124.480469 262.417969 127.175781 265.75 127.175781 Z M 271.773438 66.925781 L 283.824219 66.925781 L 283.824219 115.125 L 271.773438 115.125 Z M 271.773438 66.925781 "
          fill-opacity="1" fill-rule="nonzero"/>
    <path fill="#000000"
          d="M 338.050781 127.175781 C 341.382812 127.175781 344.074219 124.480469 344.074219 121.148438 L 344.074219 36.800781 C 344.074219 33.46875 341.382812 30.773438 338.050781 30.773438 L 313.949219 30.773438 C 310.617188 30.773438 307.925781 33.46875 307.925781 36.800781 L 307.925781 121.148438 C 307.925781 124.480469 310.617188 127.175781 313.949219 127.175781 Z M 319.976562 42.824219 L 332.023438 42.824219 L 332.023438 115.125 L 319.976562 115.125 Z M 319.976562 42.824219 "
          fill-opacity="1" fill-rule="nonzero"/>
    <path fill="#000000"
          d="M 241.648438 127.175781 C 244.980469 127.175781 247.675781 124.480469 247.675781 121.148438 L 247.675781 85 C 247.675781 81.667969 244.980469 78.976562 241.648438 78.976562 L 217.550781 78.976562 C 214.21875 78.976562 211.523438 81.667969 211.523438 85 L 211.523438 121.148438 C 211.523438 124.480469 214.21875 127.175781 217.550781 127.175781 Z M 223.574219 91.023438 L 235.625 91.023438 L 235.625 115.125 L 223.574219 115.125 Z M 223.574219 91.023438 "
          fill-opacity="1" fill-rule="nonzero"/>
    <path fill="#000000"
          d="M 139.226562 229.601562 C 149.191406 229.601562 157.300781 221.488281 157.300781 211.523438 C 157.300781 209.03125 156.792969 206.65625 155.878906 204.492188 L 178.984375 185.238281 C 181.515625 186.585938 184.359375 187.425781 187.425781 187.425781 C 191.226562 187.425781 194.746094 186.230469 197.65625 184.226562 L 223.792969 197.316406 C 223.707031 198.027344 223.574219 198.734375 223.574219 199.476562 C 223.574219 209.441406 231.683594 217.550781 241.648438 217.550781 C 250.164062 217.550781 257.273438 211.613281 259.183594 203.679688 L 291.277344 189.925781 C 294.265625 192.113281 297.917969 193.449219 301.898438 193.449219 C 311.863281 193.449219 319.976562 185.339844 319.976562 175.375 C 319.976562 165.410156 311.863281 157.300781 301.898438 157.300781 C 291.933594 157.300781 283.824219 165.410156 283.824219 175.375 C 283.824219 176.894531 284.070312 178.34375 284.421875 179.753906 L 257.640625 191.234375 C 254.632812 185.425781 248.632812 181.398438 241.648438 181.398438 C 236.78125 181.398438 232.371094 183.359375 229.117188 186.496094 L 204.726562 174.277344 C 205.179688 172.707031 205.5 171.074219 205.5 169.351562 C 205.5 159.382812 197.390625 151.273438 187.425781 151.273438 C 177.460938 151.273438 169.351562 159.382812 169.351562 169.351562 C 169.351562 171.84375 169.855469 174.21875 170.773438 176.382812 L 147.664062 195.636719 C 145.136719 194.289062 142.292969 193.449219 139.226562 193.449219 C 129.257812 193.449219 121.148438 201.558594 121.148438 211.523438 C 121.148438 212.085938 121.265625 212.609375 121.3125 213.15625 L 91.851562 222.976562 C 88.574219 219.632812 84.019531 217.550781 78.976562 217.550781 C 69.007812 217.550781 60.898438 225.660156 60.898438 235.625 C 60.898438 245.589844 69.007812 253.699219 78.976562 253.699219 C 88.941406 253.699219 97.050781 245.589844 97.050781 235.625 C 97.050781 235.0625 96.933594 234.539062 96.886719 233.992188 L 126.347656 224.171875 C 129.625 227.515625 134.183594 229.601562 139.226562 229.601562 Z M 78.976562 241.648438 C 75.648438 241.648438 72.949219 238.949219 72.949219 235.625 C 72.949219 232.300781 75.648438 229.601562 78.976562 229.601562 C 82.300781 229.601562 85 232.300781 85 235.625 C 85 238.949219 82.300781 241.648438 78.976562 241.648438 Z M 301.898438 169.351562 C 305.226562 169.351562 307.925781 172.050781 307.925781 175.375 C 307.925781 178.699219 305.226562 181.398438 301.898438 181.398438 C 298.574219 181.398438 295.875 178.699219 295.875 175.375 C 295.875 172.050781 298.574219 169.351562 301.898438 169.351562 Z M 241.648438 193.449219 C 244.976562 193.449219 247.675781 196.148438 247.675781 199.476562 C 247.675781 202.800781 244.976562 205.5 241.648438 205.5 C 238.324219 205.5 235.625 202.800781 235.625 199.476562 C 235.625 196.148438 238.324219 193.449219 241.648438 193.449219 Z M 187.425781 163.324219 C 190.75 163.324219 193.449219 166.023438 193.449219 169.351562 C 193.449219 172.675781 190.75 175.375 187.425781 175.375 C 184.097656 175.375 181.398438 172.675781 181.398438 169.351562 C 181.398438 166.023438 184.097656 163.324219 187.425781 163.324219 Z M 139.226562 205.5 C 142.550781 205.5 145.25 208.199219 145.25 211.523438 C 145.25 214.851562 142.550781 217.550781 139.226562 217.550781 C 135.898438 217.550781 133.199219 214.851562 133.199219 211.523438 C 133.199219 208.199219 135.898438 205.5 139.226562 205.5 Z M 139.226562 205.5 "
          fill-opacity="1" fill-rule="nonzero"/>
    <g clip-path="url(#ebe8a87c97)">
        <path fill="#000000"
              d="M 362.148438 6.675781 L 12.699219 6.675781 C 9.367188 6.675781 6.675781 9.367188 6.675781 12.699219 L 6.675781 301.898438 C 6.675781 305.230469 9.367188 307.925781 12.699219 307.925781 L 109.101562 307.925781 L 109.101562 295.875 L 18.726562 295.875 L 18.726562 18.726562 L 356.125 18.726562 L 356.125 295.875 L 265.75 295.875 L 265.75 307.925781 L 362.148438 307.925781 C 365.480469 307.925781 368.175781 305.230469 368.175781 301.898438 L 368.175781 12.699219 C 368.175781 9.367188 365.480469 6.675781 362.148438 6.675781 Z M 362.148438 6.675781 "
              fill-opacity="1" fill-rule="nonzero"/>
    </g>
</svg>
